<svg width="98" height="98" viewBox="0 0 98 98" fill="none" xmlns="http://www.w3.org/2000/svg">
<path d="M76.2991 66.168C71.5518 76.4645 61.1387 83.6182 49.05 83.6182C40.2193 83.6182 32.2822 79.8058 26.7964 73.7369L16.166 83.4384C24.2831 92.3835 36.0118 97.9998 49.05 97.9998C67.0837 97.9998 82.6041 87.257 89.5483 71.8277L76.2991 66.168Z" fill="#01CEB8"/>
<path d="M18.282 53.7391C21.0993 56.8758 24.8041 59.7708 31.4939 59.7708C41.8822 59.7708 50.2599 50.5218 50.2599 36.5989V36.4377C50.2599 23.0045 41.9629 13.7494 31.3325 13.7494C24.649 13.7494 21.2669 16.9667 18.282 20.1839V0H0V58.7293H18.282V53.7391ZM17.8786 36.6857C17.8786 32.2596 21.0187 28.8006 25.2075 28.8006C29.3963 28.8006 32.5364 32.2596 32.5364 36.6857V36.8469C32.5364 41.2729 29.3963 44.732 25.2075 44.732C21.0187 44.732 17.8786 41.1924 17.8786 36.8469V36.6857V36.6857Z" fill="#01CEB8"/>
<path d="M93.4018 19.7933C89.5357 15.9313 83.7396 14.084 74.7972 14.084C67.1456 14.084 61.3494 15.3734 56.2732 17.3013L59.4939 29.4513C63.3601 27.9263 67.1456 26.9593 71.6571 26.9593C77.2919 26.9593 79.7928 29.2901 79.7928 33.3133V34.0386C77.8628 33.2327 73.1092 32.4268 69.4044 32.4268C59.1775 32.4268 52.6553 37.3364 52.6553 46.1018V46.263C52.6553 54.954 58.6127 59.7768 67.0711 59.7768C69.8078 59.7768 72.2032 59.2313 74.3007 58.2767C79.3956 55.952 85.1731 55.6235 90.6155 56.9439L98.0002 58.7292V33.71C97.994 27.3498 96.7033 23.0911 93.4018 19.7933ZM80.1589 42.6118C80.1589 47.0193 77.6146 49.7282 74.22 49.7282C71.7626 49.7282 69.8078 47.9491 69.8078 45.2402V45.0728C69.8078 42.1902 71.9301 39.9028 75.7466 39.9028C77.3601 39.9028 79.0543 40.2438 80.1589 40.6653V42.6118V42.6118Z" fill="#01CEB8"/>
</svg>
