<svg width="19" height="13" viewBox="0 0 19 13" fill="none" xmlns="http://www.w3.org/2000/svg">
<path fill-rule="evenodd" clip-rule="evenodd" d="M6.9732 12.2741C7.48248 12.1572 7.91341 11.9624 8.30516 11.6897C8.61856 11.4559 8.93196 11.1442 9.12784 10.7546C9.48042 10.2092 9.63712 9.58579 9.63712 8.8845C9.63712 8.22216 9.48042 7.63775 9.16701 7.17022C8.85361 6.70269 8.42268 6.35205 7.79588 6.15724C8.18763 5.96244 8.50103 5.72868 8.69691 5.49491C9.04949 5.06634 9.24536 4.48193 9.24536 3.78064C9.24536 3.07934 9.04949 2.49493 8.69691 1.98844C8.10928 1.17027 7.09072 0.78066 5.64124 0.741699H0V12.4299H5.28866C5.91547 12.4299 6.46392 12.391 6.9732 12.2741ZM2.35052 2.76766H4.89691C5.44536 2.76766 5.91547 2.84558 6.26804 2.96246C6.69897 3.1183 6.89485 3.50791 6.89485 4.05336C6.89485 4.55985 6.73815 4.87154 6.42474 5.06634C6.11134 5.26115 5.68041 5.33907 5.17114 5.33907H2.35052V2.76766ZM2.35052 10.404V7.28711H5.24949C5.75876 7.28711 6.15052 7.36503 6.42474 7.48191C6.93402 7.71567 7.16907 8.14424 7.16907 8.72865C7.16907 9.42995 6.89485 9.93644 6.38557 10.2092C6.11134 10.365 5.71959 10.404 5.21031 10.404H2.35052ZM11.635 11.6898C12.5361 12.3911 13.5546 12.7417 14.6907 12.7417C16.101 12.7417 17.1979 12.3131 17.9814 11.495C18.4907 10.9495 18.7649 10.443 18.8433 9.93654H16.532C16.4144 10.2093 16.2577 10.4041 16.0619 10.521C15.7485 10.7937 15.3175 10.9106 14.8082 10.9106C14.3381 10.9106 13.9072 10.7937 13.5546 10.5989C12.967 10.2482 12.6928 9.62486 12.6536 8.76772H19C19 8.02747 19 7.44305 18.9216 7.05345C18.8041 6.39111 18.5691 5.76774 18.2165 5.26125C17.8247 4.67684 17.3155 4.24827 16.7278 3.97555C16.1402 3.70282 15.435 3.58594 14.6907 3.58594C13.3979 3.58594 12.3794 3.97555 11.5959 4.79372C10.8124 5.6119 10.3814 6.74176 10.3814 8.22227C10.3031 9.81966 10.7732 10.9495 11.635 11.6898ZM13.2804 5.92358C13.5938 5.6119 14.0639 5.41709 14.6515 5.41709C15.2 5.41709 15.6309 5.57294 15.9835 5.88462C16.3361 6.19631 16.532 6.66384 16.5711 7.24825H12.6536C12.732 6.7028 12.967 6.23527 13.2804 5.92358ZM11.9093 1.40397H17.0412V2.5728H11.9093V1.40397Z" fill="#C6ECFD"/>
</svg>
