<svg width="823" height="172" viewBox="0 0 823 172" fill="none" xmlns="http://www.w3.org/2000/svg">
<rect width="823" height="172" fill="white"/>
<path fill-rule="evenodd" clip-rule="evenodd" d="M83.615 49.8359C65.8286 49.8359 51.41 64.1842 51.41 81.8837C51.41 99.5833 65.8286 113.932 83.615 113.932C101.401 113.932 115.82 99.5833 115.82 81.8837C115.82 64.1842 101.401 49.8359 83.615 49.8359ZM49.6372 81.8837C49.6372 63.2099 64.8496 48.0718 83.615 48.0718C102.38 48.0718 117.593 63.2099 117.593 81.8837C117.593 100.558 102.38 115.696 83.615 115.696C64.8496 115.696 49.6372 100.558 49.6372 81.8837Z" fill="black"/>
<path fill-rule="evenodd" clip-rule="evenodd" d="M106.359 104.517C106.705 104.172 107.266 104.172 107.612 104.517L125.606 122.422C125.952 122.767 125.952 123.325 125.606 123.67C125.26 124.014 124.698 124.014 124.352 123.67L106.359 105.764C106.013 105.42 106.013 104.861 106.359 104.517Z" fill="black"/>
<path fill-rule="evenodd" clip-rule="evenodd" d="M192.134 55.8012C190.309 55.8012 188.559 56.5226 187.268 57.8068C185.978 59.0909 185.253 60.8326 185.253 62.6487V116.755C185.253 118.571 185.978 120.313 187.268 121.597C188.559 122.881 190.309 123.603 192.134 123.603H238.738C240.563 123.603 242.313 122.881 243.604 121.597C244.894 120.313 245.619 118.571 245.619 116.755V62.6487C245.619 60.8326 244.894 59.0909 243.604 57.8068C242.313 56.5226 240.563 55.8012 238.738 55.8012H230.971C230.481 55.8012 230.084 55.4063 230.084 54.9192C230.084 54.432 230.481 54.0371 230.971 54.0371H238.738C241.033 54.0371 243.234 54.9444 244.857 56.5594C246.48 58.1743 247.392 60.3647 247.392 62.6487V116.755C247.392 119.039 246.48 121.229 244.857 122.844C243.234 124.459 241.033 125.367 238.738 125.367H192.134C189.839 125.367 187.638 124.459 186.015 122.844C184.392 121.229 183.48 119.039 183.48 116.755V62.6487C183.48 60.3647 184.392 58.1743 186.015 56.5594C187.638 54.9444 189.839 54.0371 192.134 54.0371H199.901C200.391 54.0371 200.788 54.432 200.788 54.9192C200.788 55.4063 200.391 55.8012 199.901 55.8012H192.134Z" fill="black"/>
<path fill-rule="evenodd" clip-rule="evenodd" d="M203.785 48.0717C202.129 48.0717 200.787 49.4071 200.787 51.0544V58.7839C200.787 60.4312 202.129 61.7666 203.785 61.7666H227.087C228.742 61.7666 230.084 60.4312 230.084 58.7839V51.0544C230.084 49.4071 228.742 48.0717 227.087 48.0717H203.785ZM199.015 51.0544C199.015 48.4328 201.15 46.3076 203.785 46.3076H227.087C229.721 46.3076 231.857 48.4328 231.857 51.0544V58.7839C231.857 61.4055 229.721 63.5307 227.087 63.5307H203.785C201.15 63.5307 199.015 61.4055 199.015 58.7839V51.0544Z" fill="black"/>
<path fill-rule="evenodd" clip-rule="evenodd" d="M324.365 57.7026C323.414 56.8834 322.198 56.4391 320.945 56.4515L320.937 56.4515H311.852C311.135 56.4523 310.426 56.6024 309.77 56.8926C309.113 57.1828 308.524 57.6068 308.04 58.1379C307.556 58.6691 307.187 59.2957 306.957 59.978C306.728 60.6582 306.643 61.3787 306.707 62.0938C307.687 71.3265 310.825 80.1979 315.867 87.9897L315.871 87.9962C320.452 95.213 326.563 101.331 333.77 105.916L333.777 105.921C341.523 110.95 350.339 114.091 359.516 115.09C360.23 115.154 360.949 115.068 361.628 114.838C362.31 114.607 362.936 114.236 363.467 113.749C363.998 113.261 364.421 112.668 364.71 112.006C364.999 111.345 365.147 110.63 365.144 109.907L365.144 109.904V100.808C365.144 100.8 365.144 100.793 365.144 100.786C365.176 99.5137 364.739 98.275 363.918 97.3053C363.099 96.3369 361.953 95.7045 360.701 95.5265C357.728 95.1336 354.809 94.4055 352 93.356L351.998 93.3552C351.073 93.0072 350.068 92.932 349.103 93.1382C348.138 93.3443 347.251 93.823 346.548 94.5184C346.547 94.5189 346.547 94.5194 346.546 94.5199L342.704 98.3671C342.421 98.6501 341.983 98.709 341.635 98.5109C333.914 94.1156 327.522 87.7157 323.133 79.987C322.937 79.6429 322.996 79.2115 323.276 78.9312L327.118 75.084C327.119 75.0834 327.12 75.0828 327.12 75.0822C327.815 74.3783 328.294 73.4894 328.5 72.5203C328.707 71.5504 328.631 70.5415 328.283 69.6134L328.282 69.6114C327.234 66.7998 326.507 63.8786 326.115 60.9036C325.938 59.6585 325.316 58.5212 324.365 57.7026ZM320.932 54.6874C322.617 54.6719 324.249 55.2698 325.525 56.3685C326.803 57.4682 327.636 58.9943 327.871 60.6619L327.872 60.67C328.247 63.5149 328.942 66.3082 329.944 68.9967C330.41 70.2389 330.511 71.5886 330.235 72.8862C329.958 74.184 329.316 75.376 328.383 76.3206L328.379 76.3241L325.01 79.6974C329.116 86.6967 334.94 92.5289 341.929 96.6404L345.293 93.2728L345.296 93.2693C346.24 92.3352 347.432 91.6908 348.731 91.4134C350.03 91.136 351.381 91.2372 352.624 91.7047C355.308 92.7076 358.097 93.4032 360.938 93.7783L360.946 93.7793C362.634 94.0177 364.174 94.8688 365.274 96.169C366.372 97.4662 366.956 99.1204 366.917 100.818L366.917 109.9C366.917 109.901 366.917 109.901 366.917 109.902C366.92 110.868 366.722 111.824 366.336 112.709C365.949 113.595 365.381 114.391 364.669 115.045C363.957 115.699 363.116 116.198 362.199 116.508C361.283 116.818 360.312 116.934 359.348 116.846C359.345 116.846 359.342 116.846 359.339 116.846C359.337 116.845 359.334 116.845 359.332 116.845C349.875 115.816 340.792 112.581 332.812 107.4C325.387 102.676 319.092 96.374 314.374 88.9414C309.182 80.9161 305.951 71.7796 304.943 62.2719L304.942 62.2583C304.855 61.2986 304.969 60.3314 305.276 59.418C305.584 58.5046 306.077 57.6649 306.727 56.9525C307.377 56.2401 308.168 55.6706 309.05 55.2805C309.932 54.8904 310.886 54.6883 311.85 54.6874L320.932 54.6874Z" fill="black"/>
<path fill-rule="evenodd" clip-rule="evenodd" d="M435.703 41.0153C430.536 41.0153 426.347 45.1838 426.347 50.3259V121.674C426.347 126.816 430.536 130.985 435.703 130.985H507.401C512.568 130.985 516.757 126.816 516.757 121.674V50.3259C516.757 45.1838 512.568 41.0153 507.401 41.0153H435.703ZM424.574 50.3259C424.574 44.2095 429.557 39.2512 435.703 39.2512H507.401C513.547 39.2512 518.53 44.2095 518.53 50.3259V121.674C518.53 127.79 513.547 132.749 507.401 132.749H435.703C429.557 132.749 424.574 127.79 424.574 121.674V50.3259Z" fill="black"/>
<path fill-rule="evenodd" clip-rule="evenodd" d="M436.541 55.1282C436.541 54.8846 436.739 54.6871 436.984 54.6871H452.496C452.741 54.6871 452.939 54.8846 452.939 55.1282V70.5641C452.939 70.8076 452.741 71.0051 452.496 71.0051H436.984C436.739 71.0051 436.541 70.8076 436.541 70.5641V55.1282ZM437.427 55.5692V70.123H452.053V55.5692H437.427Z" fill="black"/>
<path fill-rule="evenodd" clip-rule="evenodd" d="M456.484 55.1282C456.484 54.8846 456.683 54.6871 456.928 54.6871H472.439C472.684 54.6871 472.882 54.8846 472.882 55.1282V70.5641C472.882 70.8076 472.684 71.0051 472.439 71.0051H456.928C456.683 71.0051 456.484 70.8076 456.484 70.5641V55.1282ZM457.371 55.5692V70.123H471.996V55.5692H457.371Z" fill="black"/>
<path fill-rule="evenodd" clip-rule="evenodd" d="M447.62 74.9744C447.62 74.7308 447.819 74.5333 448.063 74.5333H463.575C463.82 74.5333 464.018 74.7308 464.018 74.9744V90.4102C464.018 90.6538 463.82 90.8513 463.575 90.8513H448.063C447.819 90.8513 447.62 90.6538 447.62 90.4102V74.9744ZM448.506 75.4154V89.9692H463.132V75.4154H448.506Z" fill="black"/>
<path fill-rule="evenodd" clip-rule="evenodd" d="M489.28 63.0666C489.28 62.8231 489.479 62.6256 489.723 62.6256H505.235C505.48 62.6256 505.678 62.8231 505.678 63.0666V78.5025C505.678 78.7461 505.48 78.9436 505.235 78.9436H489.723C489.479 78.9436 489.28 78.7461 489.28 78.5025V63.0666ZM490.167 63.5077V78.0615H504.792V63.5077H490.167Z" fill="black"/>
<path fill-rule="evenodd" clip-rule="evenodd" d="M464.462 99.6717C464.462 99.4282 464.66 99.2307 464.905 99.2307H480.417C480.661 99.2307 480.86 99.4282 480.86 99.6717V115.108C480.86 115.351 480.661 115.549 480.417 115.549H464.905C464.66 115.549 464.462 115.351 464.462 115.108V99.6717ZM465.348 100.113V114.667H479.973V100.113H465.348Z" fill="black"/>
<path fill-rule="evenodd" clip-rule="evenodd" d="M484.405 99.6717C484.405 99.4282 484.604 99.2307 484.848 99.2307H500.36C500.605 99.2307 500.803 99.4282 500.803 99.6717V115.108C500.803 115.351 500.605 115.549 500.36 115.549H484.848C484.604 115.549 484.405 115.351 484.405 115.108V99.6717ZM485.292 100.113V114.667H499.917V100.113H485.292Z" fill="black"/>
<path fill-rule="evenodd" clip-rule="evenodd" d="M456.041 93.4973C471.421 93.4973 483.518 82.9427 483.518 70.3435C483.518 57.7443 471.421 47.1897 456.041 47.1897C440.66 47.1897 428.563 57.7443 428.563 70.3435C428.563 82.9427 440.66 93.4973 456.041 93.4973ZM456.041 94.8204C471.95 94.8204 484.848 83.8617 484.848 70.3435C484.848 56.8253 471.95 45.8666 456.041 45.8666C440.131 45.8666 427.233 56.8253 427.233 70.3435C427.233 83.8617 440.131 94.8204 456.041 94.8204Z" fill="#C6ECFD"/>
<path fill-rule="evenodd" clip-rule="evenodd" d="M508.254 111.056C509.525 109.748 510.109 108.436 510.109 107.169C510.109 105.902 509.525 104.59 508.254 103.282C506.977 101.967 505.065 100.723 502.598 99.6494C497.67 97.5038 490.768 96.1435 483.075 96.1435C475.381 96.1435 468.48 97.5038 463.551 99.6494C461.085 100.723 459.173 101.967 457.896 103.282C456.625 104.59 456.041 105.902 456.041 107.169C456.041 108.436 456.625 109.748 457.896 111.056C459.173 112.371 461.085 113.615 463.551 114.689C468.48 116.835 475.381 118.195 483.075 118.195C490.768 118.195 497.67 116.835 502.598 114.689C505.065 113.615 506.977 112.371 508.254 111.056ZM483.075 119.518C498.74 119.518 511.439 113.989 511.439 107.169C511.439 100.349 498.74 94.8204 483.075 94.8204C467.41 94.8204 454.711 100.349 454.711 107.169C454.711 113.989 467.41 119.518 483.075 119.518Z" fill="#C6ECFD"/>
<path fill-rule="evenodd" clip-rule="evenodd" d="M581.042 101.495C584.179 98.3518 588.435 96.5846 592.874 96.5846H624.562C629.001 96.5846 633.257 98.3518 636.394 101.495C639.531 104.639 641.292 108.901 641.292 113.344V121.282C641.292 121.769 640.895 122.164 640.406 122.164C639.916 122.164 639.519 121.769 639.519 121.282V113.344C639.519 109.365 637.942 105.55 635.136 102.738C632.331 99.927 628.527 98.3487 624.562 98.3487H592.874C588.909 98.3487 585.105 99.927 582.299 102.738C579.494 105.55 577.916 109.365 577.916 113.344V121.282C577.916 121.769 577.519 122.164 577.03 122.164C576.54 122.164 576.144 121.769 576.144 121.282V113.344C576.144 108.901 577.905 104.639 581.042 101.495Z" fill="black"/>
<path fill-rule="evenodd" clip-rule="evenodd" d="M608.718 55.5692C600.53 55.5692 593.871 62.2709 593.871 70.564C593.871 78.8571 600.53 85.5589 608.718 85.5589C616.906 85.5589 623.565 78.8571 623.565 70.564C623.565 62.2709 616.906 55.5692 608.718 55.5692ZM592.099 70.564C592.099 61.32 599.528 53.8051 608.718 53.8051C617.909 53.8051 625.338 61.32 625.338 70.564C625.338 79.8081 617.909 87.323 608.718 87.323C599.528 87.323 592.099 79.8081 592.099 70.564Z" fill="black"/>
<path fill-rule="evenodd" clip-rule="evenodd" d="M707.042 54.2462C705.355 54.2462 703.737 54.9132 702.543 56.1005C701.35 57.2878 700.68 58.8982 700.68 60.5773V96.6434C700.68 98.3226 701.35 99.9329 702.543 101.12C703.737 102.308 705.355 102.975 707.042 102.975H710.666C711.156 102.975 711.553 103.37 711.553 103.857C711.553 104.344 711.156 104.739 710.666 104.739H707.042C704.885 104.739 702.816 103.886 701.29 102.368C699.764 100.85 698.907 98.7904 698.907 96.6434V60.5773C698.907 58.4303 699.764 56.3713 701.29 54.8531C702.816 53.3349 704.885 52.4821 707.042 52.4821H765.031C767.188 52.4821 769.258 53.3349 770.783 54.8531C772.309 56.3713 773.166 58.4303 773.166 60.5773V96.6434C773.166 98.7904 772.309 100.85 770.783 102.368C769.258 103.886 767.188 104.739 765.031 104.739H761.407C760.917 104.739 760.52 104.344 760.52 103.857C760.52 103.37 760.917 102.975 761.407 102.975H765.031C766.718 102.975 768.336 102.308 769.53 101.12C770.723 99.9329 771.393 98.3226 771.393 96.6434V60.5773C771.393 58.8982 770.723 57.2878 769.53 56.1005C768.336 54.9132 766.718 54.2462 765.031 54.2462H707.042Z" fill="black"/>
<path fill-rule="evenodd" clip-rule="evenodd" d="M736.037 95.7615C736.3 95.7615 736.55 95.8777 736.718 96.0789L754.84 117.719C755.06 117.981 755.107 118.347 754.961 118.657C754.815 118.967 754.503 119.165 754.159 119.165H717.916C717.572 119.165 717.259 118.967 717.113 118.657C716.967 118.347 717.015 117.981 717.235 117.719L735.356 96.0789C735.525 95.8777 735.774 95.7615 736.037 95.7615ZM719.808 117.401H752.266L736.037 98.0213L719.808 117.401Z" fill="black"/>
<path fill-rule="evenodd" clip-rule="evenodd" d="M157.345 76.6445L165.806 85.0645C166.325 85.5812 166.325 86.4189 165.806 86.9356L157.345 95.3556C156.825 95.8723 155.983 95.8723 155.464 95.3556C154.945 94.8389 154.945 94.0012 155.464 93.4845L161.656 87.3231H138.274V84.677H161.656L155.464 78.5156C154.945 77.9989 154.945 77.1612 155.464 76.6445C155.983 76.1278 156.825 76.1278 157.345 76.6445Z" fill="#C6EDFD"/>
<path fill-rule="evenodd" clip-rule="evenodd" d="M280.994 76.6445L289.455 85.0645C289.974 85.5812 289.974 86.4189 289.455 86.9356L280.994 95.3556C280.475 95.8723 279.633 95.8723 279.114 95.3556C278.594 94.8389 278.594 94.0012 279.114 93.4845L285.305 87.3231H261.924V84.677H285.305L279.114 78.5156C278.594 77.9989 278.594 77.1612 279.114 76.6445C279.633 76.1278 280.475 76.1278 280.994 76.6445Z" fill="#C6EDFD"/>
<path fill-rule="evenodd" clip-rule="evenodd" d="M404.643 76.6445L413.105 85.0645C413.624 85.5812 413.624 86.4189 413.105 86.9356L404.643 95.3556C404.124 95.8723 403.282 95.8723 402.763 95.3556C402.244 94.8389 402.244 94.0012 402.763 93.4845L408.955 87.3231H385.573V84.677H408.955L402.763 78.5156C402.244 77.9989 402.244 77.1612 402.763 76.6445C403.282 76.1278 404.124 76.1278 404.643 76.6445Z" fill="#C6EDFD"/>
<path fill-rule="evenodd" clip-rule="evenodd" d="M553.111 76.6445L561.572 85.0645C562.092 85.5812 562.092 86.4189 561.572 86.9356L553.111 95.3556C552.592 95.8723 551.75 95.8723 551.231 95.3556C550.712 94.8389 550.712 94.0012 551.231 93.4845L557.422 87.3231H534.041V84.677H557.422L551.231 78.5156C550.712 77.9989 550.712 77.1612 551.231 76.6445C551.75 76.1278 552.592 76.1278 553.111 76.6445Z" fill="#C6EDFD"/>
<path fill-rule="evenodd" clip-rule="evenodd" d="M671 76.6445L679.461 85.0645C679.98 85.5812 679.98 86.4189 679.461 86.9356L671 95.3556C670.481 95.8723 669.639 95.8723 669.12 95.3556C668.6 94.8389 668.6 94.0012 669.12 93.4845L675.311 87.3231H651.93V84.677H675.311L669.12 78.5156C668.6 77.9989 668.6 77.1612 669.12 76.6445C669.639 76.1278 670.481 76.1278 671 76.6445Z" fill="#C6EDFD"/>
</svg>
