<svg width="14" height="15" viewBox="0 0 14 15" fill="none" xmlns="http://www.w3.org/2000/svg">
<path fill-rule="evenodd" clip-rule="evenodd" d="M3.38605 1.76967C3.38605 2.71167 2.63721 3.49125 1.69302 3.49125C0.748837 3.49125 0 2.71167 0 1.76967C0 0.827679 0.748837 0.0480957 1.69302 0.0480957C2.63721 0.0480957 3.4186 0.827679 3.38605 1.76967ZM7.78139 9.14315C7.78139 7.84384 8.4 7.06426 9.53953 7.06426C10.6139 7.06426 11.1023 7.81136 11.1023 9.14315V14.048H14V8.13619C14 5.63502 12.5674 4.43317 10.6139 4.43317C8.6279 4.43317 7.81395 5.95985 7.81395 5.95985V4.69303H5.04651V14.0155H7.81395C7.78139 14.0155 7.78139 10.5724 7.78139 9.14315ZM3.1907 4.69306H0.29303V14.0156H3.1907V4.69306Z" fill="#139CD7"/>
</svg>
