<svg width="14" height="14" viewBox="0 0 14 14" fill="none" xmlns="http://www.w3.org/2000/svg">
<path fill-rule="evenodd" clip-rule="evenodd" d="M3.38605 1.72158C3.38605 2.66358 2.63721 3.44316 1.69302 3.44316C0.748837 3.44316 0 2.66358 0 1.72158C0 0.779583 0.748837 0 1.69302 0C2.63721 0 3.4186 0.779583 3.38605 1.72158ZM7.78139 9.09505C7.78139 7.79575 8.4 7.01616 9.53953 7.01616C10.6139 7.01616 11.1023 7.76326 11.1023 9.09505V13.9999H14V8.08809C14 5.58693 12.5674 4.38507 10.6139 4.38507C8.6279 4.38507 7.81395 5.91175 7.81395 5.91175V4.64493H5.04651V13.9674H7.81395C7.78139 13.9674 7.78139 10.5243 7.78139 9.09505ZM3.1907 4.64496H0.29303V13.9675H3.1907V4.64496Z" fill="#C6ECFD"/>
</svg>
