<svg width="86" height="29" viewBox="0 0 86 29" fill="none" xmlns="http://www.w3.org/2000/svg">
<rect y="25" width="86" height="4" fill="#C6ECFD"/>
<path d="M2.28 18.5V6.76L0.82 6.5V5.14H7.2V6.5L5.56 6.76V11.6H11.2V6.76L9.68 6.5V5.14H15.98V6.5L14.48 6.76V18.5L15.98 18.72V20H9.66V18.72L11.2 18.5V13.26H5.56V18.5L7.2 18.72V20H0.8V18.72L2.28 18.5ZM22.7378 20.22C20.9245 20.22 19.5845 19.7067 18.7178 18.68C17.8511 17.64 17.4178 16.2267 17.4178 14.44C17.4178 13.2267 17.6378 12.1867 18.0778 11.32C18.5311 10.44 19.1645 9.76667 19.9778 9.3C20.8045 8.83333 21.7645 8.6 22.8578 8.6C24.2445 8.6 25.3045 8.95333 26.0378 9.66C26.7711 10.3667 27.1511 11.3667 27.1778 12.66C27.1778 13.5 27.1178 14.18 26.9978 14.7H20.6778C20.7445 15.86 21.0245 16.7467 21.5178 17.36C22.0111 17.9733 22.7111 18.28 23.6178 18.28C24.1111 18.28 24.6245 18.1933 25.1578 18.02C25.7045 17.8467 26.1511 17.6467 26.4978 17.42L27.0178 18.6C26.6711 18.9867 26.0845 19.3533 25.2578 19.7C24.4445 20.0467 23.6045 20.22 22.7378 20.22ZM24.0978 13.4L24.1178 12.56C24.1178 11.72 23.9978 11.08 23.7578 10.64C23.5178 10.1867 23.1178 9.96 22.5578 9.96C21.9711 9.96 21.5178 10.2067 21.1978 10.7C20.8778 11.1933 20.6978 12.0933 20.6578 13.4H24.0978ZM28.6925 18.72L29.9325 18.54V10.94L28.7125 10.56V9.04L31.9725 8.62H32.0325L32.5925 9.04V9.5L32.5325 11.16H32.5925C32.6858 10.8533 32.8992 10.5 33.2325 10.1C33.5658 9.7 33.9925 9.35333 34.5125 9.06C35.0325 8.75333 35.5925 8.6 36.1925 8.6C36.5392 8.6 36.8058 8.64667 36.9925 8.74V12.08C36.5525 11.76 36.0192 11.6 35.3925 11.6C34.4992 11.6 33.7258 11.8133 33.0725 12.24V18.54L35.3125 18.72V20H28.6925V18.72ZM38.2438 18.72L39.3238 18.52V10.94L38.1238 10.56V9.04L41.6638 8.62L41.8438 8.72L42.2238 9.32V10.26C42.6638 9.82 43.2904 9.44667 44.1038 9.14C44.9171 8.82 45.6238 8.66 46.2238 8.66C46.9438 8.66 47.5238 8.78 47.9638 9.02C48.4171 9.26 48.7571 9.63333 48.9838 10.14C49.4371 9.71333 50.0104 9.36 50.7038 9.08C51.3971 8.8 52.0971 8.66 52.8038 8.66C53.9904 8.66 54.8371 9.00667 55.3438 9.7C55.8504 10.38 56.1038 11.4933 56.1038 13.04V18.52L57.3238 18.72V20H51.9638V18.72L52.9038 18.52V13.12C52.9038 12.1467 52.7904 11.4667 52.5638 11.08C52.3371 10.6933 51.9104 10.5 51.2838 10.5C50.9371 10.5 50.5838 10.58 50.2238 10.74C49.8771 10.9 49.5704 11.0867 49.3038 11.3C49.3838 11.7 49.4238 12.2867 49.4238 13.06V18.52L50.5838 18.72V20H45.1838V18.72L46.2038 18.52V13.06C46.2038 12.4067 46.1638 11.9 46.0838 11.54C46.0038 11.18 45.8504 10.92 45.6238 10.76C45.4104 10.5867 45.0971 10.5 44.6838 10.5C44.2971 10.5 43.9171 10.5867 43.5438 10.76C43.1704 10.9333 42.8371 11.14 42.5438 11.38V18.52L43.6438 18.72V20H38.2438V18.72ZM63.7534 20.22C61.9401 20.22 60.6001 19.7067 59.7334 18.68C58.8668 17.64 58.4334 16.2267 58.4334 14.44C58.4334 13.2267 58.6534 12.1867 59.0934 11.32C59.5468 10.44 60.1801 9.76667 60.9934 9.3C61.8201 8.83333 62.7801 8.6 63.8734 8.6C65.2601 8.6 66.3201 8.95333 67.0534 9.66C67.7868 10.3667 68.1668 11.3667 68.1934 12.66C68.1934 13.5 68.1334 14.18 68.0134 14.7H61.6934C61.7601 15.86 62.0401 16.7467 62.5334 17.36C63.0268 17.9733 63.7268 18.28 64.6334 18.28C65.1268 18.28 65.6401 18.1933 66.1734 18.02C66.7201 17.8467 67.1668 17.6467 67.5134 17.42L68.0334 18.6C67.6868 18.9867 67.1001 19.3533 66.2734 19.7C65.4601 20.0467 64.6201 20.22 63.7534 20.22ZM65.1134 13.4L65.1334 12.56C65.1334 11.72 65.0134 11.08 64.7734 10.64C64.5334 10.1867 64.1334 9.96 63.5734 9.96C62.9868 9.96 62.5334 10.2067 62.2134 10.7C61.8934 11.1933 61.7134 12.0933 61.6734 13.4H65.1134ZM72.1081 18.34C72.2015 18.4867 72.4215 18.6267 72.7681 18.76C73.1281 18.88 73.4881 18.94 73.8481 18.94C74.4081 18.94 74.8348 18.82 75.1281 18.58C75.4215 18.34 75.5681 18.0267 75.5681 17.64C75.5681 17.2267 75.3815 16.8933 75.0081 16.64C74.6481 16.3867 74.0481 16.0733 73.2081 15.7L72.4281 15.34C71.5481 14.9533 70.8881 14.4867 70.4481 13.94C70.0081 13.38 69.7881 12.6733 69.7881 11.82C69.7881 11.2067 69.9681 10.66 70.3281 10.18C70.6881 9.7 71.2015 9.32667 71.8681 9.06C72.5481 8.78 73.3415 8.64 74.2481 8.64C74.8748 8.64 75.4215 8.68 75.8881 8.76C76.3548 8.84 76.8281 8.94 77.3081 9.06C77.6281 9.15333 77.8615 9.20667 78.0081 9.22V11.92H76.2681L75.7681 10.4C75.7015 10.2667 75.5281 10.1533 75.2481 10.06C74.9815 9.95333 74.6748 9.9 74.3281 9.9C73.8348 9.9 73.4415 10.0133 73.1481 10.24C72.8548 10.4667 72.7081 10.7667 72.7081 11.14C72.7081 11.4467 72.7948 11.7133 72.9681 11.94C73.1548 12.1533 73.3815 12.3333 73.6481 12.48C73.9148 12.6267 74.3015 12.8133 74.8081 13.04L75.2481 13.22C75.9548 13.5267 76.5481 13.8267 77.0281 14.12C77.5081 14.4 77.9015 14.7667 78.2081 15.22C78.5281 15.6733 78.6881 16.22 78.6881 16.86C78.6881 17.8467 78.2948 18.6533 77.5081 19.28C76.7348 19.9067 75.5881 20.22 74.0681 20.22C73.3615 20.22 72.7148 20.16 72.1281 20.04C71.5548 19.92 70.9615 19.7667 70.3481 19.58L69.7881 19.42V16.76H71.6081L72.1081 18.34ZM82.1959 20.16C81.7559 20.16 81.3693 20.0067 81.0359 19.7C80.7026 19.3933 80.5359 19.0067 80.5359 18.54C80.5359 18.02 80.7226 17.5933 81.0959 17.26C81.4826 16.9267 81.9493 16.76 82.4959 16.76C83.0159 16.76 83.4293 16.9267 83.7359 17.26C84.0559 17.58 84.2159 17.96 84.2159 18.4C84.2159 18.9467 84.0293 19.38 83.6559 19.7C83.2826 20.0067 82.7959 20.16 82.1959 20.16Z" fill="black"/>
</svg>
