<svg width="72" height="54" viewBox="0 0 72 54" fill="none" xmlns="http://www.w3.org/2000/svg">
<path d="M65.2472 31.6061C65.1074 31.4674 64.9645 31.3307 64.8187 31.1962L66.5587 15.315C66.6134 14.9304 66.5993 14.5294 66.5062 14.1283C66.105 12.3994 64.3881 11.3254 62.6714 11.7295C61.3243 12.0466 60.3777 13.1796 60.2264 14.4883C60.2264 14.4883 58.6632 27.5398 58.5808 27.5398C58.4983 27.5398 57.9343 27.2675 57.9562 27.2626L59.6682 11.6407C59.7241 11.2539 59.7097 10.8504 59.6145 10.4469C59.2042 8.70736 57.4485 7.6268 55.693 8.03336C54.3154 8.3524 53.3474 9.49239 53.1927 10.809L51.2021 26.3638C51.0945 26.3675 50.5728 26.4531 50.7013 26.3384L52.1394 13.2154C52.1953 12.8286 52.1809 12.4251 52.0857 12.0216C51.6754 10.2821 49.9197 9.20149 48.1642 9.60806C46.7867 9.9271 45.8186 11.0671 45.6639 12.3837L43.8342 28.0019C43.6477 29.2033 41.6891 33.0847 39.3575 30.9592C39.2555 30.7521 37.7733 28.3498 37.7733 28.3498C34.3291 23.4152 30.2176 28.3498 30.2176 28.3498C36.1151 38.0192 37.8856 52.1313 50.8772 53.828C59.8332 54.9977 67.9082 50.081 69.1723 42.7883L71.9735 20.7825C72.0188 20.4642 72.0071 20.1322 71.9299 19.8002C71.597 18.3688 70.1723 17.4797 68.7479 17.8142C67.6301 18.0767 66.8445 19.0148 66.719 20.0982L65.2472 31.6061Z" fill="#C6ECFD"/>
<g style="mix-blend-mode:multiply">
<path d="M6.75281 31.6061C6.8926 31.4674 7.03547 31.3307 7.18134 31.1962L5.4413 15.315C5.38664 14.9304 5.40074 14.5294 5.49381 14.1283C5.89503 12.3994 7.61192 11.3254 9.32857 11.7295C10.6757 12.0466 11.6223 13.1796 11.7736 14.4883C11.7736 14.4883 13.3368 27.5398 13.4192 27.5398C13.5017 27.5398 14.0657 27.2675 14.0438 27.2626L12.3318 11.6407C12.2759 11.2539 12.2903 10.8504 12.3855 10.4469C12.7958 8.70736 14.5515 7.6268 16.307 8.03336C17.6846 8.3524 18.6526 9.49239 18.8073 10.809L20.7979 26.3638C20.9055 26.3675 21.4272 26.4531 21.2987 26.3384L19.8606 13.2154C19.8047 12.8286 19.8191 12.4251 19.9143 12.0216C20.3246 10.2821 22.0803 9.20149 23.8358 9.60806C25.2133 9.9271 26.1814 11.0671 26.3361 12.3837L28.1658 28.0019C28.3523 29.2033 30.3109 33.0847 32.6425 30.9592C32.7445 30.7521 34.2267 28.3498 34.2267 28.3498C37.6709 23.4152 41.7824 28.3498 41.7824 28.3498C35.8849 38.0192 34.1144 52.1313 21.1228 53.828C12.1668 54.9977 4.09184 50.081 2.82769 42.7883L0.0265274 20.7825C-0.0188255 20.4642 -0.00712204 20.1322 0.0701027 19.8002C0.403034 18.3688 1.82768 17.4797 3.25214 17.8142C4.36993 18.0767 5.15546 19.0148 5.28099 20.0982L6.75281 31.6061Z" fill="#C6ECFD"/>
</g>
<path fill-rule="evenodd" clip-rule="evenodd" d="M23.3433 1.2004L27.2604 7.92326L25.645 8.84741L21.7279 2.12455L23.3433 1.2004Z" fill="#C6ECFD"/>
<path fill-rule="evenodd" clip-rule="evenodd" d="M46.0999 1.2004L42.1829 7.92326L43.7982 8.84741L47.7153 2.12455L46.0999 1.2004Z" fill="#C6ECFD"/>
<path fill-rule="evenodd" clip-rule="evenodd" d="M36 5.08726e-05V7.76294H34.1347V5.08726e-05H36Z" fill="#C6ECFD"/>
</svg>
