<svg width="460" height="219" viewBox="0 0 460 219" fill="none" xmlns="http://www.w3.org/2000/svg">
<g opacity="0.5">
<path d="M371.313 155.247C371.499 154.554 371.673 153.856 371.835 153.152L425.304 129.565C426.622 129.033 427.867 128.255 428.969 127.229C433.719 122.807 434.01 115.453 429.618 110.803C426.172 107.154 420.866 106.254 416.446 108.173C416.446 108.173 372.262 127.139 372.113 126.88C371.963 126.622 371.804 124.353 371.859 124.412L424.456 101.212C425.783 100.68 427.035 99.8965 428.141 98.8597C432.908 94.3897 433.149 86.9013 428.68 82.1338C425.172 78.3927 419.805 77.4388 415.354 79.3614L362.464 101.565C362.258 101.234 361.041 99.7524 361.637 99.946L405.821 80.4567C407.148 79.9245 408.4 79.1412 409.506 78.1043C414.273 73.6344 414.514 66.1459 410.044 61.3785C406.537 57.6373 401.17 56.6834 396.719 58.6061L343.92 81.4304C339.776 83.0424 323.929 83.9936 326.437 72.7857C326.908 72.0867 331.832 63.0394 331.832 63.0394C341.224 43.2004 318.137 39.319 318.137 39.319C298.192 75.5206 256.691 106.893 274.863 150.782C287.39 181.038 317.603 197.395 342.999 188.024L417.796 156.565C418.887 156.125 419.918 155.481 420.829 154.631C424.761 150.968 424.996 144.869 421.354 141.009C418.496 137.98 414.1 137.23 410.44 138.817L371.313 155.247Z" fill="#C6ECFD"/>
<path d="M371.835 153.152L371.431 152.237C371.142 152.364 370.931 152.62 370.86 152.928L371.835 153.152ZM371.313 155.247L370.347 154.987C370.248 155.356 370.368 155.749 370.655 156C370.943 156.251 371.348 156.317 371.7 156.169L371.313 155.247ZM342.999 188.024L343.346 188.962C343.36 188.957 343.373 188.951 343.387 188.946L342.999 188.024ZM274.863 150.782L275.787 150.399L275.787 150.399L274.863 150.782ZM318.137 39.319L318.303 38.3329L317.604 38.2153L317.262 38.8365L318.137 39.319ZM331.832 63.0394L332.711 63.5175L332.724 63.4927L332.736 63.4673L331.832 63.0394ZM326.437 72.7857L325.608 72.2268L325.502 72.3832L325.461 72.5673L326.437 72.7857ZM410.044 61.3785L409.315 62.0625L409.315 62.0625L410.044 61.3785ZM409.506 78.1043L408.822 77.3748L408.822 77.3748L409.506 78.1043ZM396.719 58.6061L396.322 57.688L396.322 57.6882L396.719 58.6061ZM405.821 80.4567L405.448 79.5286C405.438 79.5328 405.427 79.5372 405.417 79.5418L405.821 80.4567ZM343.92 81.4304L344.283 82.3624L344.3 82.3556L344.317 82.3483L343.92 81.4304ZM361.637 99.946L361.328 100.897L361.692 101.015L362.041 100.861L361.637 99.946ZM428.68 82.1338L427.95 82.8178L427.95 82.8178L428.68 82.1338ZM428.141 98.8597L427.457 98.1302L427.457 98.1302L428.141 98.8597ZM415.354 79.3614L415.741 80.2835L415.75 80.2795L415.354 79.3614ZM424.456 101.212L424.083 100.284C424.073 100.288 424.063 100.293 424.052 100.297L424.456 101.212ZM371.859 124.412L371.125 125.091L371.61 125.615L372.263 125.327L371.859 124.412ZM429.618 110.803L430.345 110.116L430.345 110.116L429.618 110.803ZM428.969 127.229L429.65 127.961L429.65 127.961L428.969 127.229ZM416.446 108.173L416.84 109.092L416.844 109.09L416.446 108.173ZM425.304 129.565L424.93 128.638C424.92 128.642 424.91 128.646 424.901 128.65L425.304 129.565ZM421.354 141.009L422.081 140.323L422.081 140.323L421.354 141.009ZM420.829 154.631L420.148 153.9L420.148 153.9L420.829 154.631ZM410.44 138.817L410.828 139.74L410.838 139.735L410.44 138.817ZM417.796 156.565L417.422 155.638C417.417 155.64 417.413 155.641 417.408 155.643L417.796 156.565ZM362.464 101.565L361.616 102.094C361.876 102.51 362.399 102.677 362.852 102.487L362.464 101.565ZM370.86 152.928C370.701 153.62 370.53 154.307 370.347 154.987L372.279 155.506C372.468 154.802 372.645 154.092 372.809 153.376L370.86 152.928ZM342.653 187.086C317.904 196.218 288.173 180.313 275.787 150.399L273.939 151.164C286.608 181.762 317.302 198.572 343.346 188.962L342.653 187.086ZM318.137 39.319C317.972 40.3052 317.971 40.3052 317.971 40.3051C317.971 40.3051 317.971 40.3051 317.971 40.3051C317.971 40.3051 317.971 40.3052 317.972 40.3053C317.974 40.3056 317.977 40.3061 317.981 40.3069C317.99 40.3084 318.004 40.3109 318.023 40.3144C318.062 40.3215 318.121 40.3326 318.199 40.3482C318.355 40.3793 318.587 40.4282 318.881 40.4978C319.47 40.6369 320.305 40.8581 321.281 41.184C323.241 41.8386 325.724 42.9017 327.906 44.5394C330.084 46.1733 331.919 48.3451 332.688 51.2219C333.456 54.0921 333.202 57.8086 330.929 62.6116L332.736 63.4673C335.158 58.3507 335.54 54.1424 334.621 50.7051C333.703 47.2745 331.527 44.7561 329.107 42.9398C326.692 41.1272 323.99 39.9801 321.915 39.287C320.873 38.939 319.978 38.702 319.341 38.5514C319.022 38.476 318.767 38.4222 318.59 38.3868C318.501 38.3691 318.432 38.356 318.384 38.3472C318.359 38.3427 318.34 38.3394 318.327 38.337C318.32 38.3358 318.315 38.3349 318.311 38.3342C318.309 38.3339 318.307 38.3336 318.306 38.3334C318.305 38.3333 318.305 38.3331 318.304 38.3331C318.304 38.333 318.303 38.3329 318.137 39.319ZM331.832 63.0394C330.954 62.5613 330.954 62.5614 330.954 62.5614C330.954 62.5615 330.954 62.5616 330.954 62.5617C330.954 62.562 330.953 62.5624 330.953 62.563C330.953 62.5641 330.952 62.5657 330.95 62.5679C330.948 62.5722 330.945 62.5787 330.94 62.5872C330.931 62.6043 330.917 62.6297 330.899 62.6629C330.863 62.7293 330.81 62.8267 330.742 62.951C330.606 63.1996 330.412 63.5555 330.178 63.9848C329.709 64.8435 329.079 65.9955 328.435 67.1691C327.79 68.3431 327.132 69.5373 326.605 70.4808C326.063 71.4531 325.695 72.0972 325.608 72.2268L327.266 73.3447C327.414 73.1248 327.838 72.3758 328.352 71.4551C328.881 70.5057 329.542 69.307 330.188 68.1318C330.833 66.9562 331.464 65.8027 331.933 64.9432C332.168 64.5134 332.362 64.157 332.498 63.9081C332.566 63.7836 332.619 63.686 332.655 63.6195C332.673 63.5862 332.687 63.5607 332.696 63.5436C332.701 63.535 332.705 63.5285 332.707 63.5241C332.708 63.5219 332.709 63.5203 332.71 63.5192C332.71 63.5186 332.71 63.5182 332.71 63.5179C332.711 63.5178 332.711 63.5177 332.711 63.5176C332.711 63.5175 332.711 63.5175 331.832 63.0394ZM409.315 62.0625C413.407 66.427 413.186 73.2826 408.822 77.3748L410.19 78.8338C415.36 73.9861 415.622 65.8649 410.774 60.6945L409.315 62.0625ZM397.115 59.5241C401.192 57.7634 406.105 58.6386 409.315 62.0625L410.774 60.6945C406.969 56.6361 401.149 55.6035 396.322 57.688L397.115 59.5241ZM408.822 77.3748C407.808 78.3253 406.662 79.0419 405.448 79.5286L406.193 81.3849C407.633 80.8071 408.992 79.957 410.19 78.8338L408.822 77.3748ZM344.317 82.3483L397.115 59.524L396.322 57.6882L343.523 80.5125L344.317 82.3483ZM405.417 79.5418L361.234 99.0311L362.041 100.861L406.224 81.3717L405.417 79.5418ZM427.95 82.8178C432.042 87.1824 431.821 94.038 427.457 98.1302L428.825 99.5892C433.995 94.7415 434.257 86.6202 429.409 81.4498L427.95 82.8178ZM415.75 80.2795C419.827 78.5187 424.74 79.394 427.95 82.8178L429.409 81.4498C425.604 77.3914 419.784 76.3589 414.957 78.4434L415.75 80.2795ZM427.457 98.1302C426.443 99.0806 425.297 99.7973 424.083 100.284L424.828 102.14C426.268 101.563 427.627 100.712 428.825 99.5892L427.457 98.1302ZM424.052 100.297L371.455 123.498L372.263 125.327L424.859 102.127L424.052 100.297ZM428.891 111.489C432.892 115.726 432.642 122.444 428.287 126.498L429.65 127.961C434.796 123.171 435.128 115.18 430.345 110.116L428.891 111.489ZM416.844 109.09C420.898 107.33 425.749 108.162 428.891 111.489L430.345 110.116C426.595 106.145 420.834 105.178 416.048 107.256L416.844 109.09ZM428.287 126.498C427.276 127.439 426.136 128.151 424.93 128.638L425.679 130.492C427.107 129.915 428.457 129.072 429.65 127.961L428.287 126.498ZM371.247 127.38C371.459 127.748 371.805 127.838 371.9 127.859C372.026 127.887 372.129 127.884 372.171 127.882C372.264 127.877 372.339 127.861 372.368 127.855C372.438 127.839 372.508 127.818 372.559 127.801C372.671 127.766 372.818 127.713 372.987 127.649C373.331 127.52 373.822 127.326 374.435 127.078C375.664 126.582 377.406 125.86 379.489 124.989C383.655 123.246 389.194 120.899 394.727 118.544C400.26 116.189 405.788 113.826 409.933 112.052C412.006 111.165 413.733 110.425 414.941 109.907C415.545 109.648 416.02 109.444 416.344 109.305C416.506 109.236 416.63 109.182 416.713 109.146C416.755 109.129 416.787 109.115 416.808 109.106C416.819 109.101 416.827 109.098 416.832 109.096C416.835 109.094 416.837 109.093 416.838 109.093C416.839 109.093 416.839 109.092 416.84 109.092C416.84 109.092 416.84 109.092 416.446 108.173C416.051 107.254 416.051 107.254 416.051 107.254C416.051 107.255 416.05 107.255 416.049 107.255C416.048 107.256 416.046 107.257 416.043 107.258C416.038 107.26 416.03 107.263 416.019 107.268C415.998 107.277 415.967 107.291 415.925 107.309C415.841 107.344 415.717 107.398 415.555 107.467C415.232 107.606 414.757 107.809 414.153 108.068C412.945 108.587 411.218 109.326 409.146 110.213C405.002 111.987 399.475 114.349 393.944 116.704C388.412 119.058 382.877 121.404 378.717 123.144C376.636 124.015 374.903 124.732 373.686 125.224C373.077 125.47 372.603 125.657 372.284 125.777C372.121 125.838 372.011 125.877 371.947 125.898C371.91 125.909 371.912 125.907 371.936 125.902C371.941 125.901 371.998 125.888 372.077 125.884C372.113 125.882 372.211 125.879 372.333 125.906C372.424 125.927 372.768 126.015 372.979 126.38L371.247 127.38ZM420.626 141.695C423.879 145.143 423.682 150.606 420.148 153.9L421.511 155.363C425.84 151.33 426.112 144.595 422.081 140.323L420.626 141.695ZM410.838 139.735C414.131 138.307 418.072 138.988 420.626 141.695L422.081 140.323C418.92 136.973 414.07 136.153 410.043 137.9L410.838 139.735ZM420.148 153.9C419.327 154.665 418.401 155.243 417.422 155.638L418.17 157.493C419.373 157.008 420.508 156.298 421.511 155.363L420.148 153.9ZM361.946 98.9949C361.856 98.9657 361.71 98.9265 361.534 98.9287C361.352 98.931 361.053 98.9813 360.798 99.2277C360.543 99.4739 360.484 99.7703 360.476 99.9487C360.468 100.121 360.501 100.264 360.525 100.346C360.607 100.632 360.798 100.932 360.915 101.109C361.058 101.326 361.225 101.555 361.358 101.736C361.427 101.831 361.485 101.91 361.535 101.978C361.559 102.011 361.578 102.038 361.593 102.06C361.6 102.071 361.606 102.079 361.61 102.085C361.615 102.092 361.616 102.095 361.616 102.094L363.313 101.035C363.235 100.911 363.086 100.71 362.97 100.553C362.836 100.37 362.697 100.178 362.585 100.008C362.446 99.7981 362.432 99.7428 362.447 99.7954C362.454 99.8192 362.48 99.9109 362.473 100.042C362.467 100.178 362.42 100.442 362.188 100.665C361.957 100.889 361.693 100.927 361.558 100.929C361.43 100.93 361.344 100.902 361.328 100.897L361.946 98.9949ZM362.852 102.487L415.741 80.2835L414.967 78.4394L362.077 100.643L362.852 102.487ZM372.593 123.733C372.504 123.637 372.152 123.309 371.618 123.44C371.173 123.549 370.994 123.9 370.966 123.955C370.877 124.127 370.861 124.288 370.86 124.292C370.849 124.372 370.848 124.447 370.848 124.48C370.847 124.565 370.85 124.673 370.855 124.782C370.866 125.007 370.886 125.308 370.913 125.614C370.94 125.919 370.974 126.245 371.012 126.517C371.031 126.652 371.053 126.788 371.079 126.907C371.094 126.979 371.138 127.193 371.247 127.38L372.979 126.38C373.05 126.504 373.056 126.59 373.035 126.488C373.023 126.434 373.008 126.35 372.992 126.237C372.961 126.013 372.93 125.727 372.905 125.44C372.88 125.154 372.862 124.882 372.853 124.691C372.849 124.592 372.848 124.53 372.848 124.502C372.848 124.478 372.849 124.51 372.842 124.563C372.84 124.58 372.835 124.611 372.825 124.652C372.818 124.682 372.796 124.769 372.743 124.872C372.716 124.925 372.539 125.274 372.095 125.383C371.563 125.513 371.213 125.186 371.125 125.091L372.593 123.733ZM424.901 128.65L371.431 152.237L372.238 154.067L425.708 130.48L424.901 128.65ZM371.7 156.169L410.828 139.739L410.053 137.895L370.926 154.325L371.7 156.169ZM417.408 155.643L342.612 187.102L343.387 188.946L418.184 157.487L417.408 155.643ZM343.558 80.4984C342.65 80.8515 340.992 81.2013 339.018 81.3382C337.057 81.4742 334.87 81.3937 332.909 80.9411C330.934 80.4854 329.302 79.6794 328.301 78.4577C327.336 77.2804 326.838 75.5702 327.413 73.0041L325.461 72.5673C324.781 75.6052 325.323 77.9791 326.754 79.7252C328.148 81.427 330.267 82.384 332.459 82.8899C334.664 83.3989 337.059 83.4789 339.156 83.3334C341.241 83.1888 343.118 82.8153 344.283 82.3624L343.558 80.4984ZM275.787 150.399C266.871 128.866 272.549 110.398 283.066 92.6779C288.334 83.8026 294.789 75.1602 301.211 66.4282C307.62 57.715 313.991 48.9171 319.013 39.8016L317.262 38.8365C312.311 47.8217 306.015 56.5209 299.6 65.2432C293.199 73.9467 286.675 82.6781 281.346 91.6571C270.669 109.646 264.682 128.808 273.939 151.164L275.787 150.399Z" fill="#C6ECFD"/>
</g>
<g opacity="0.5">
<path d="M89.5122 155.247C89.3261 154.554 89.1521 153.856 88.9904 153.152L35.521 129.565C34.2037 129.033 32.9586 128.255 31.8567 127.229C27.1062 122.807 26.8154 115.453 31.2071 110.803C34.6534 107.154 39.9591 106.254 44.3793 108.173C44.3793 108.173 88.563 127.139 88.7124 126.88C88.8619 126.622 89.0214 124.353 88.9661 124.412L36.3695 101.212C35.0425 100.68 33.7902 99.8965 32.6844 98.8597C27.9169 94.3897 27.6757 86.9013 32.1457 82.1338C35.6533 78.3927 41.0197 77.4388 45.4714 79.3614L98.3608 101.565C98.5674 101.234 99.7841 99.7524 99.1879 99.946L55.0046 80.4567C53.6776 79.9245 52.4253 79.1412 51.3195 78.1043C46.552 73.6344 46.3108 66.1459 50.7808 61.3785C54.2884 57.6373 59.6548 56.6834 64.1065 58.6061L116.905 81.4304C121.049 83.0424 136.897 83.9936 134.388 72.7857C133.917 72.0867 128.993 63.0394 128.993 63.0394C119.602 43.2004 142.688 39.3191 142.688 39.3191C162.633 75.5206 204.135 106.893 185.962 150.782C173.435 181.038 143.222 197.395 117.826 188.024L43.0292 156.565C41.9384 156.125 40.9077 155.481 39.9958 154.631C36.0644 150.968 35.8296 144.869 39.4714 141.009C42.3291 137.98 46.7248 137.23 50.3847 138.817L89.5122 155.247Z" fill="#C6ECFD"/>
<path d="M88.9904 153.152L89.394 152.237C89.6828 152.364 89.8944 152.62 89.9651 152.928L88.9904 153.152ZM89.5122 155.247L90.478 154.987C90.577 155.356 90.4576 155.749 90.17 156C89.8825 156.251 89.4771 156.317 89.1251 156.169L89.5122 155.247ZM117.826 188.024L117.48 188.962C117.466 188.957 117.452 188.951 117.438 188.946L117.826 188.024ZM185.962 150.782L185.038 150.399L185.038 150.399L185.962 150.782ZM142.688 39.3191L142.522 38.3329L143.221 38.2153L143.564 38.8365L142.688 39.3191ZM128.993 63.0394L128.115 63.5175L128.101 63.4927L128.089 63.4673L128.993 63.0394ZM134.388 72.7857L135.218 72.2268L135.323 72.3832L135.364 72.5674L134.388 72.7857ZM50.7808 61.3785L51.5103 62.0625L51.5103 62.0625L50.7808 61.3785ZM51.3195 78.1043L52.0034 77.3748L52.0035 77.3748L51.3195 78.1043ZM64.1065 58.6061L64.503 57.688L64.5033 57.6882L64.1065 58.6061ZM55.0046 80.4567L55.3768 79.5286C55.3873 79.5328 55.3978 79.5372 55.4082 79.5418L55.0046 80.4567ZM116.905 81.4304L116.542 82.3624L116.525 82.3556L116.508 82.3483L116.905 81.4304ZM99.1879 99.946L99.4968 100.897L99.1337 101.015L98.7843 100.861L99.1879 99.946ZM32.1457 82.1338L32.8752 82.8178L32.8752 82.8178L32.1457 82.1338ZM32.6844 98.8597L33.3683 98.1302L33.3683 98.1302L32.6844 98.8597ZM45.4714 79.3614L45.0843 80.2835L45.0749 80.2795L45.4714 79.3614ZM36.3695 101.212L36.7417 100.284C36.7522 100.288 36.7627 100.293 36.7731 100.297L36.3695 101.212ZM88.9661 124.412L89.7003 125.091L89.2156 125.615L88.5625 125.327L88.9661 124.412ZM31.2071 110.803L30.4801 110.116L30.4801 110.116L31.2071 110.803ZM31.8567 127.229L31.1753 127.961L31.1753 127.961L31.8567 127.229ZM44.3793 108.173L43.9849 109.092L43.9811 109.09L44.3793 108.173ZM35.521 129.565L35.8953 128.638C35.9052 128.642 35.9149 128.646 35.9246 128.65L35.521 129.565ZM39.4714 141.009L38.744 140.323L38.744 140.323L39.4714 141.009ZM39.9958 154.631L40.6775 153.9L40.6775 153.9L39.9958 154.631ZM50.3847 138.817L49.9975 139.74L49.9868 139.735L50.3847 138.817ZM43.0292 156.565L43.4032 155.638C43.4078 155.64 43.4123 155.641 43.4169 155.643L43.0292 156.565ZM98.3608 101.565L99.2091 102.094C98.9493 102.51 98.426 102.677 97.9737 102.487L98.3608 101.565ZM89.9651 152.928C90.124 153.62 90.2951 154.307 90.478 154.987L88.5465 155.506C88.3572 154.802 88.1802 154.092 88.0158 153.376L89.9651 152.928ZM118.172 187.086C142.921 196.218 172.653 180.313 185.038 150.399L186.886 151.164C174.218 181.762 143.523 198.572 117.48 188.962L118.172 187.086ZM142.688 39.3191C142.854 40.3052 142.854 40.3052 142.854 40.3051C142.854 40.3051 142.854 40.3051 142.854 40.3051C142.854 40.3051 142.854 40.3052 142.853 40.3053C142.851 40.3056 142.848 40.3061 142.844 40.3069C142.835 40.3084 142.821 40.3109 142.802 40.3144C142.764 40.3215 142.705 40.3326 142.626 40.3482C142.47 40.3793 142.238 40.4282 141.944 40.4978C141.355 40.6369 140.52 40.8581 139.544 41.184C137.584 41.8386 135.101 42.9017 132.919 44.5394C130.742 46.1733 128.906 48.3451 128.137 51.2219C127.369 54.0921 127.623 57.8086 129.897 62.6116L128.089 63.4673C125.667 58.3507 125.285 54.1424 126.205 50.7051C127.122 47.2745 129.298 44.7561 131.718 42.9398C134.134 41.1272 136.835 39.9801 138.911 39.287C139.952 38.939 140.847 38.702 141.484 38.5514C141.803 38.4761 142.058 38.4222 142.235 38.3868C142.324 38.3691 142.393 38.356 142.442 38.3472C142.466 38.3427 142.485 38.3394 142.498 38.337C142.505 38.3358 142.51 38.3349 142.514 38.3342C142.516 38.3339 142.518 38.3336 142.519 38.3334C142.52 38.3333 142.521 38.3331 142.521 38.3331C142.521 38.333 142.522 38.3329 142.688 39.3191ZM128.993 63.0394C129.871 62.5613 129.871 62.5614 129.871 62.5614C129.871 62.5615 129.871 62.5616 129.871 62.5617C129.872 62.562 129.872 62.5624 129.872 62.563C129.873 62.5641 129.874 62.5657 129.875 62.5679C129.877 62.5722 129.881 62.5787 129.885 62.5872C129.895 62.6043 129.908 62.6297 129.926 62.6629C129.963 62.7293 130.016 62.8267 130.083 62.951C130.219 63.1996 130.413 63.5555 130.647 63.9848C131.116 64.8435 131.746 65.9955 132.391 67.1691C133.035 68.3431 133.694 69.5373 134.22 70.4808C134.762 71.4531 135.13 72.0972 135.218 72.2268L133.559 73.3447C133.411 73.1248 132.987 72.3759 132.473 71.4551C131.944 70.5057 131.283 69.307 130.637 68.1318C129.992 66.9562 129.361 65.8027 128.892 64.9432C128.657 64.5134 128.463 64.157 128.327 63.9081C128.259 63.7836 128.206 63.686 128.17 63.6195C128.152 63.5862 128.138 63.5608 128.129 63.5436C128.124 63.535 128.121 63.5285 128.118 63.5241C128.117 63.5219 128.116 63.5203 128.115 63.5192C128.115 63.5186 128.115 63.5182 128.115 63.5179C128.115 63.5178 128.115 63.5177 128.115 63.5176C128.115 63.5175 128.115 63.5175 128.993 63.0394ZM51.5103 62.0625C47.4181 66.427 47.6389 73.2826 52.0034 77.3748L50.6355 78.8338C45.4651 73.9861 45.2036 65.8649 50.0513 60.6945L51.5103 62.0625ZM63.7101 59.5241C59.6332 57.7634 54.7204 58.6386 51.5103 62.0625L50.0513 60.6945C53.8564 56.6361 59.6765 55.6035 64.503 57.688L63.7101 59.5241ZM52.0035 77.3748C53.0172 78.3253 54.1633 79.0419 55.3768 79.5286L54.6324 81.3849C53.1918 80.8071 51.8335 79.957 50.6355 78.8338L52.0035 77.3748ZM116.508 82.3483L63.7097 59.524L64.5033 57.6882L117.302 80.5125L116.508 82.3483ZM55.4082 79.5418L99.5915 99.0311L98.7843 100.861L54.601 81.3717L55.4082 79.5418ZM32.8752 82.8178C28.783 87.1824 29.0038 94.038 33.3683 98.1302L32.0004 99.5892C26.83 94.7415 26.5685 86.6202 31.4162 81.4498L32.8752 82.8178ZM45.0749 80.2795C40.9981 78.5187 36.0853 79.394 32.8752 82.8178L31.4162 81.4498C35.2213 77.3914 41.0414 76.3589 45.8679 78.4434L45.0749 80.2795ZM33.3683 98.1302C34.3821 99.0806 35.5282 99.7973 36.7417 100.284L35.9973 102.14C34.5567 101.563 33.1984 100.712 32.0004 99.5892L33.3683 98.1302ZM36.7731 100.297L89.3697 123.498L88.5625 125.327L35.9659 102.127L36.7731 100.297ZM31.9341 111.489C27.933 115.726 28.1836 122.444 32.538 126.498L31.1753 127.961C26.0287 123.171 25.6977 115.18 30.4801 110.116L31.9341 111.489ZM43.9811 109.09C39.9268 107.33 35.0764 108.162 31.9341 111.489L30.4801 110.116C34.2305 106.145 39.9914 105.178 44.7775 107.256L43.9811 109.09ZM32.538 126.498C33.5489 127.439 34.6895 128.151 35.8953 128.638L35.1467 130.492C33.7178 129.915 32.3682 129.072 31.1753 127.961L32.538 126.498ZM89.5785 127.38C89.3663 127.748 89.0205 127.838 88.9254 127.859C88.7989 127.887 88.6957 127.884 88.6539 127.882C88.5613 127.877 88.4861 127.861 88.4576 127.855C88.3872 127.839 88.3174 127.818 88.266 127.801C88.1542 127.766 88.0076 127.713 87.8382 127.649C87.4945 127.52 87.003 127.326 86.39 127.078C85.1617 126.582 83.4189 125.86 81.3364 124.989C77.1702 123.246 71.6309 120.899 66.0982 118.544C60.5651 116.189 55.0368 113.826 50.8919 112.052C48.8194 111.165 47.0927 110.425 45.8841 109.907C45.2798 109.648 44.805 109.444 44.4813 109.305C44.3195 109.236 44.1954 109.182 44.1117 109.146C44.0699 109.129 44.0382 109.115 44.0169 109.106C44.0063 109.101 43.9983 109.098 43.9929 109.096C43.9903 109.094 43.9883 109.093 43.9869 109.093C43.9862 109.093 43.9857 109.092 43.9854 109.092C43.9851 109.092 43.9849 109.092 44.3793 108.173C44.7738 107.254 44.7739 107.254 44.7743 107.254C44.7746 107.255 44.7751 107.255 44.7758 107.255C44.7771 107.256 44.7791 107.257 44.7818 107.258C44.7872 107.26 44.7952 107.263 44.8058 107.268C44.827 107.277 44.8587 107.291 44.9004 107.309C44.984 107.344 45.108 107.398 45.2698 107.467C45.5934 107.606 46.068 107.809 46.6722 108.068C47.8805 108.587 49.6068 109.326 51.6789 110.213C55.8231 111.987 61.35 114.349 66.8814 116.704C72.4133 119.058 77.948 121.404 82.1083 123.144C84.189 124.015 85.9226 124.732 87.1391 125.224C87.7487 125.47 88.2217 125.657 88.5417 125.777C88.7041 125.838 88.814 125.877 88.8782 125.898C88.9148 125.909 88.9128 125.907 88.8894 125.902C88.8844 125.901 88.8275 125.888 88.7479 125.884C88.7126 125.882 88.6146 125.879 88.4919 125.906C88.4007 125.927 88.0574 126.015 87.8464 126.38L89.5785 127.38ZM40.1987 141.695C36.9458 145.143 37.1432 150.606 40.6775 153.9L39.314 155.363C34.9856 151.33 34.7134 144.595 38.744 140.323L40.1987 141.695ZM49.9868 139.735C46.694 138.307 42.7534 138.988 40.1987 141.695L38.744 140.323C41.9049 136.973 46.7556 136.153 50.7827 137.9L49.9868 139.735ZM40.6775 153.9C41.4982 154.665 42.4242 155.243 43.4032 155.638L42.6551 157.493C41.4525 157.008 40.3171 156.298 39.314 155.363L40.6775 153.9ZM98.879 98.9949C98.969 98.9657 99.1156 98.9265 99.2915 98.9287C99.4734 98.931 99.7726 98.9813 100.027 99.2277C100.282 99.4739 100.341 99.7703 100.35 99.9487C100.358 100.121 100.324 100.264 100.301 100.346C100.219 100.632 100.027 100.932 99.9103 101.109C99.7671 101.326 99.6005 101.555 99.4673 101.736C99.398 101.831 99.3397 101.91 99.2907 101.978C99.2666 102.011 99.2473 102.038 99.2322 102.06C99.2248 102.071 99.2191 102.079 99.2149 102.085C99.2105 102.092 99.2088 102.095 99.2091 102.094L97.5124 101.035C97.5901 100.911 97.7396 100.71 97.8547 100.553C97.9892 100.37 98.1282 100.178 98.2405 100.008C98.379 99.7981 98.3929 99.7428 98.3779 99.7954C98.3711 99.8192 98.3457 99.9109 98.3518 100.042C98.3581 100.178 98.4056 100.442 98.6367 100.665C98.868 100.889 99.1325 100.927 99.2668 100.929C99.3951 100.93 99.4814 100.902 99.4968 100.897L98.879 98.9949ZM97.9737 102.487L45.0843 80.2835L45.8585 78.4394L98.7478 100.643L97.9737 102.487ZM88.232 123.733C88.3215 123.637 88.6733 123.309 89.2069 123.44C89.6521 123.549 89.8307 123.9 89.8593 123.955C89.9479 124.127 89.9643 124.288 89.9648 124.292C89.9757 124.372 89.9768 124.447 89.9772 124.48C89.9781 124.565 89.9748 124.673 89.9698 124.782C89.9595 125.007 89.939 125.308 89.9123 125.614C89.8856 125.919 89.8516 126.245 89.813 126.517C89.7939 126.652 89.7719 126.788 89.7464 126.907C89.731 126.979 89.6869 127.193 89.5785 127.38L87.8464 126.38C87.7753 126.504 87.7689 126.59 87.7907 126.488C87.8023 126.434 87.8167 126.35 87.8328 126.237C87.8644 126.013 87.8948 125.727 87.9198 125.44C87.9448 125.154 87.9631 124.882 87.9719 124.691C87.9764 124.592 87.9776 124.53 87.9773 124.502C87.977 124.478 87.976 124.51 87.9832 124.563C87.9855 124.58 87.9903 124.611 87.9999 124.652C88.0071 124.682 88.0289 124.769 88.0821 124.872C88.1093 124.925 88.2865 125.274 88.7302 125.383C89.2622 125.513 89.6125 125.186 89.7003 125.091L88.232 123.733ZM35.9246 128.65L89.394 152.237L88.5868 154.067L35.1174 130.48L35.9246 128.65ZM89.1251 156.169L49.9976 139.739L50.7719 137.895L89.8994 154.325L89.1251 156.169ZM43.4169 155.643L118.213 187.102L117.438 188.946L42.6415 157.487L43.4169 155.643ZM117.267 80.4984C118.175 80.8515 119.833 81.2013 121.807 81.3382C123.768 81.4742 125.956 81.3937 127.917 80.9411C129.891 80.4854 131.523 79.6794 132.524 78.4577C133.489 77.2804 133.987 75.5702 133.413 73.0041L135.364 72.5674C136.044 75.6052 135.502 77.9791 134.071 79.7253C132.677 81.427 130.558 82.384 128.366 82.8899C126.161 83.399 123.766 83.4789 121.669 83.3334C119.584 83.1888 117.707 82.8153 116.542 82.3624L117.267 80.4984ZM185.038 150.399C193.954 128.866 188.276 110.398 177.759 92.6779C172.491 83.8026 166.036 75.1602 159.614 66.4282C153.206 57.715 146.834 48.9172 141.812 39.8016L143.564 38.8365C148.514 47.8217 154.81 56.5209 161.225 65.2432C167.626 73.9467 174.15 82.6782 179.479 91.6572C190.156 109.646 196.143 128.808 186.886 151.164L185.038 150.399Z" fill="#C6ECFD"/>
</g>
</svg>
