<svg width="19" height="13" viewBox="0 0 19 13" fill="none" xmlns="http://www.w3.org/2000/svg">
<path fill-rule="evenodd" clip-rule="evenodd" d="M6.9732 12.3222C7.48248 12.2053 7.91341 12.0105 8.30516 11.7378C8.61856 11.504 8.93196 11.1923 9.12784 10.8027C9.48042 10.2573 9.63712 9.63389 9.63712 8.93259C9.63712 8.27026 9.48042 7.68585 9.16701 7.21832C8.85361 6.75079 8.42268 6.40014 7.79588 6.20534C8.18763 6.01054 8.50103 5.77677 8.69691 5.54301C9.04949 5.11444 9.24536 4.53003 9.24536 3.82873C9.24536 3.12744 9.04949 2.54303 8.69691 2.03654C8.10928 1.21836 7.09072 0.828756 5.64124 0.789795H0V12.478H5.28866C5.91547 12.478 6.46392 12.4391 6.9732 12.3222ZM2.35052 2.81575H4.89691C5.44536 2.81575 5.91547 2.89368 6.26804 3.01056C6.69897 3.1664 6.89485 3.55601 6.89485 4.10146C6.89485 4.60795 6.73815 4.91963 6.42474 5.11444C6.11134 5.30924 5.68041 5.38716 5.17114 5.38716H2.35052V2.81575ZM2.35052 10.4521V7.3352H5.24949C5.75876 7.3352 6.15052 7.41312 6.42474 7.53C6.93402 7.76377 7.16907 8.19234 7.16907 8.77675C7.16907 9.47804 6.89485 9.98453 6.38557 10.2573C6.11134 10.4131 5.71959 10.4521 5.21031 10.4521H2.35052ZM11.635 11.7379C12.5361 12.4392 13.5546 12.7898 14.6907 12.7898C16.101 12.7898 17.1979 12.3612 17.9814 11.5431C18.4907 10.9976 18.7649 10.4911 18.8433 9.98464H16.532C16.4144 10.2574 16.2577 10.4522 16.0619 10.569C15.7485 10.8418 15.3175 10.9587 14.8082 10.9587C14.3381 10.9587 13.9072 10.8418 13.5546 10.647C12.967 10.2963 12.6928 9.67295 12.6536 8.81581H19C19 8.07556 19 7.49115 18.9216 7.10154C18.8041 6.43921 18.5691 5.81584 18.2165 5.30935C17.8247 4.72494 17.3155 4.29637 16.7278 4.02364C16.1402 3.75092 15.435 3.63403 14.6907 3.63403C13.3979 3.63403 12.3794 4.02364 11.5959 4.84182C10.8124 5.65999 10.3814 6.78986 10.3814 8.27036C10.3031 9.86776 10.7732 10.9976 11.635 11.7379ZM13.2804 5.97168C13.5938 5.65999 14.0639 5.46519 14.6515 5.46519C15.2 5.46519 15.6309 5.62103 15.9835 5.93272C16.3361 6.2444 16.532 6.71193 16.5711 7.29635H12.6536C12.732 6.7509 12.967 6.28337 13.2804 5.97168ZM11.9093 1.45207H17.0412V2.62089H11.9093V1.45207Z" fill="#139CD7"/>
</svg>
