<svg width="32" height="32" viewBox="0 0 32 32" fill="none" xmlns="http://www.w3.org/2000/svg">
<g clip-path="url(#clip0)">
<rect width="32" height="32" fill="white"/>
<g opacity="0.5">
<path d="M24.0773 18.9254C24.0219 18.8154 23.9642 18.7061 23.9043 18.5975L28.0471 9.45733C28.1548 9.23845 28.2251 8.99636 28.2487 8.73892C28.3504 7.6291 27.5457 6.65455 26.4512 6.56221C25.5924 6.48975 24.8104 6.98207 24.4644 7.73368C24.4644 7.73368 20.9809 15.2194 20.9322 15.2034C20.8834 15.1873 20.6033 14.9152 20.6172 14.9166L24.6926 5.92578C24.8015 5.70575 24.8721 5.46213 24.8949 5.20283C24.9933 4.08494 24.1669 3.09894 23.049 3.00052C22.1718 2.9233 21.3757 3.41558 21.0261 4.1713L16.7991 13.068C16.7347 13.0493 16.4095 12.999 16.5079 12.9555L19.9314 5.40288C20.0403 5.18284 20.1109 4.93922 20.1337 4.67992C20.2322 3.56204 19.4057 2.57604 18.2878 2.47762C17.4106 2.40039 16.6146 2.89268 16.265 3.6484L12.1207 12.6141C11.7748 13.2949 9.85554 15.2309 8.89341 13.5094C8.87368 13.366 8.46816 11.6443 8.46816 11.6443C7.39882 8.03005 3.99981 10.1763 3.99981 10.1763C5.59166 17.093 3.87179 25.8593 11.2222 29.396C16.2893 31.834 22.0287 30.4685 24.2061 26.3617L30.1773 13.7725C30.2666 13.5913 30.3247 13.3909 30.3442 13.1777C30.4279 12.2588 29.7597 11.4513 28.8517 11.3743C28.1392 11.3138 27.4907 11.721 27.2041 12.3432L24.0773 18.9254Z" fill="#C6ECFD"/>
</g>
</g>
<defs>
<clipPath id="clip0">
<rect width="32" height="32" fill="white"/>
</clipPath>
</defs>
</svg>
