<?xml version="1.0" encoding="utf-8"?>
<!-- Generator: Adobe Illustrator 24.0.2, SVG Export Plug-In . SVG Version: 6.00 Build 0)  -->
<svg version="1.1" id="Capa_1" xmlns="http://www.w3.org/2000/svg" xmlns:xlink="http://www.w3.org/1999/xlink" x="0px" y="0px"
	 viewBox="0 0 397 421" style="enable-background:new 0 0 397 421;" xml:space="preserve">
<style type="text/css">
	.st0{fill:#C6ECFD;}
</style>
<path class="st0" d="M368.1,134.7c-10.8-0.9-20.6,5.3-25,14.7l0,0l-44.7,94c-0.4-0.9-0.9-1.7-1.4-2.6l60.1-132.6
	c1.6-3.3,2.7-6.9,3-10.8c1.5-16.7-10.6-31.4-27.1-32.8c-12.9-1.1-24.7,6.3-29.9,17.6c0,0,0,0,0,0c0,0,0,0,0,0c0,0,0,0,0,0l0,0
	c0,0,0,0,0,0c0,0,0,0,0,0c0,0,0,0,0,0.1c0,0.1-0.1,0.1-0.1,0.2c-0.1,0.2-0.2,0.5-0.4,0.9c-0.4,0.8-0.9,2-1.6,3.5
	c-1.4,3-3.4,7.2-5.8,12.3c-4.8,10.2-11.1,23.8-17.5,37.4c-6.4,13.6-12.8,27.2-17.6,37.4c-2.4,5.1-4.5,9.3-5.9,12.3
	c-0.7,1.5-1.3,2.6-1.7,3.4c0,0.1-0.1,0.1-0.1,0.2c0,0-0.1-0.1-0.1-0.1c-0.5-0.4-1-0.9-1.6-1.4c-0.5-0.5-1-1-1.4-1.4c0,0,0,0-0.1-0.1
	l59.1-130.3l0,0c1.6-3.3,2.7-7,3-10.9c1.5-16.8-11-31.7-27.8-33.1c-13.2-1.2-25.2,6.2-30.4,17.6l0,0L192,159.2
	c-0.2,0-0.3-0.1-0.5-0.1c-0.6-0.1-1.2-0.2-1.7-0.4c-0.1,0-0.2-0.1-0.3-0.1L239,49.2l0,0c1.6-3.3,2.7-7,3-10.8
	c1.5-16.8-11-31.7-27.8-33.1c-13.2-1.2-25.2,6.2-30.4,17.6v0l0.5,0.2l0.4,0.2l-0.9-0.4l-60.3,130.5c-1.2,2.4-3.8,5.9-7.3,9.5
	c-3.5,3.6-7.8,7.2-12.4,9.7c-4.6,2.5-9.3,3.9-13.7,3.2c-4.3-0.7-8.4-3.3-11.7-9.3c-0.1-0.8-0.5-2.6-1.1-5c-0.6-2.6-1.4-6-2.1-9.2
	c-0.8-3.3-1.5-6.5-2.1-8.8c-0.3-1.2-0.5-2.2-0.7-2.9c-0.1-0.3-0.1-0.6-0.2-0.8c0-0.1,0-0.2,0-0.2c0,0,0,0,0-0.1c0,0,0,0,0,0
	c0,0,0,0,0,0c0,0,0,0,0,0l0,0l0,0c-3.9-13.3-10.1-21.5-17.1-26.1c-7.1-4.6-15-5.7-22.3-5c-7.3,0.6-14.1,2.9-19,5.1
	c-2.5,1.1-4.5,2.1-5.9,2.9c-0.7,0.4-1.3,0.7-1.6,0.9c-0.2,0.1-0.3,0.2-0.4,0.3c0,0-0.1,0.1-0.1,0.1c0,0,0,0,0,0c0,0,0,0,0,0
	c0,0,0,0,0,0c0,0,0,0,0.5,0.8l0,0l-0.5-0.8l-0.6,0.4l0.2,0.7c5.8,25.1,8.6,51.9,11.1,78.8c2.6,26.9,5,54,10,79.5
	c10,51.1,30.7,96.2,84.6,122.2c74.1,35.7,158.3,15.8,190.3-44.6l-0.9-0.5l0,0l0,0l0.9,0.5c0,0,0,0,0,0L388.2,171l0,0c0,0,0,0,0,0
	l0,0l0,0c1.3-2.7,2.2-5.8,2.5-9C392,148.1,381.9,135.9,368.1,134.7z M188.6,159.4l-0.3-0.7l0,0L188.6,159.4
	C188.6,159.4,188.6,159.4,188.6,159.4z M298.5,245.6L298.5,245.6C298.5,245.6,298.5,245.6,298.5,245.6L298.5,245.6L298.5,245.6z
	 M356.3,107.8L356.3,107.8L356.3,107.8C356.3,107.8,356.3,107.8,356.3,107.8z M124.4,153.7L124.4,153.7L124.4,153.7L124.4,153.7z
	 M254.1,30.8C254.1,30.8,254.1,30.8,254.1,30.8L254.1,30.8L254.1,30.8z M72.2,139.4C72.2,139.4,72.2,139.4,72.2,139.4L72.2,139.4z
	 M72,139.5c-0.1,0-0.4,0.1-0.7,0.2l0,0L72,139.5z M387.3,170.6C387.3,170.6,387.3,170.6,387.3,170.6L387.3,170.6L387.3,170.6z"/>
</svg>
