<svg width="20" height="19" viewBox="0 0 20 19" fill="none" xmlns="http://www.w3.org/2000/svg">
<path d="M4.10519 1.47259C3.51325 1.70247 3.01112 2.00997 2.51086 2.51041C1.49857 3.52193 1.11693 4.89056 1.05397 6.28891C0.944148 8.75506 0.942599 11.2441 1.05435 13.7102C1.11864 15.1083 1.49827 16.477 2.51049 17.4888C3.01055 17.9895 3.51268 18.2977 4.10425 18.5276C7.18163 19.0765 12.8189 19.0725 15.8955 18.5276C16.4873 18.2977 16.9886 17.9895 17.4887 17.4888C18.5016 16.4767 18.8799 15.1089 18.9456 13.7103C19.0564 11.2442 19.0564 8.75527 18.9456 6.28909C18.8799 4.89055 18.5016 3.52252 17.4887 2.51041C16.9881 2.00978 16.4874 1.70228 15.8949 1.47259C12.8156 0.774351 7.18303 0.782342 4.10519 1.47259ZM13.6374 2.67372C14.6259 2.71892 15.6222 2.93586 16.3427 3.65678C17.0635 4.37754 17.2811 5.37374 17.3261 6.36241C17.436 8.77823 17.436 11.2178 17.3261 13.6337C17.2809 14.6225 17.0638 15.6175 16.3427 16.3382C15.6218 17.0591 14.6263 17.2762 13.6374 17.3214C11.2208 17.4313 8.78043 17.4313 6.36384 17.3214C5.37534 17.2758 4.3784 17.0587 3.65762 16.338C2.9368 15.6172 2.71918 14.6217 2.67418 13.6329C2.56435 11.2168 2.56435 8.77628 2.67418 6.36016C2.71939 5.37124 2.93666 4.37511 3.65762 3.65416C4.37867 2.93312 5.37489 2.71578 6.36384 2.67034C8.77671 2.56136 11.2264 2.56415 13.6374 2.67372ZM14.8048 4.11634C13.8657 4.11634 13.3771 5.2962 14.0413 5.96015C14.3434 6.2622 14.8237 6.35763 15.2184 6.19403C16.2726 5.75705 15.962 4.11634 14.8048 4.11634ZM10.0006 5.37822C7.44816 5.37822 5.3787 7.44766 5.3787 10.0001C5.3787 12.5525 7.44816 14.621 10.0006 14.621C12.5531 14.621 14.622 12.5525 14.622 10.0001C14.622 7.44766 12.5531 5.37822 10.0006 5.37822ZM10.0006 7.00009C11.6574 7.00009 13.0007 8.34316 13.0007 10.0001C13.0007 11.6568 11.6574 13.0001 10.0006 13.0001C8.34367 13.0001 7.00059 11.6568 7.00059 10.0001C7.00059 8.34316 8.34367 7.00009 10.0006 7.00009Z" fill="#C6ECFD"/>
</svg>
