<svg width="20" height="18" viewBox="0 0 20 18" fill="none" xmlns="http://www.w3.org/2000/svg">
<path d="M4.10519 0.52069C3.51325 0.750565 3.01112 1.05806 2.51086 1.5585C1.49857 2.57003 1.11693 3.93866 1.05397 5.337C0.944148 7.80316 0.942599 10.2922 1.05435 12.7583C1.11864 14.1564 1.49827 15.5251 2.51049 16.5369C3.01055 17.0376 3.51268 17.3458 4.10425 17.5757C7.18163 18.1246 12.8189 18.1206 15.8955 17.5757C16.4873 17.3458 16.9886 17.0376 17.4887 16.5369C18.5016 15.5248 18.8799 14.157 18.9456 12.7584C19.0564 10.2923 19.0564 7.80337 18.9456 5.33719C18.8799 3.93864 18.5016 2.57062 17.4887 1.5585C16.9881 1.05788 16.4874 0.750377 15.8949 0.52069C12.8156 -0.177553 7.18303 -0.169562 4.10519 0.52069ZM13.6374 1.72181C14.6259 1.76701 15.6222 1.98396 16.3427 2.70488C17.0635 3.42564 17.2811 4.42184 17.3261 5.4105C17.436 7.82632 17.436 10.2659 17.3261 12.6818C17.2809 13.6706 17.0638 14.6656 16.3427 15.3863C15.6218 16.1072 14.6263 16.3243 13.6374 16.3695C11.2208 16.4793 8.78043 16.4793 6.36384 16.3695C5.37534 16.3239 4.3784 16.1068 3.65762 15.3861C2.9368 14.6653 2.71918 13.6698 2.67418 12.681C2.56435 10.2649 2.56435 7.82437 2.67418 5.40825C2.71939 4.41934 2.93666 3.42321 3.65762 2.70225C4.37867 1.98121 5.37489 1.76387 6.36384 1.71844C8.77671 1.60946 11.2264 1.61224 13.6374 1.72181ZM14.8048 3.16444C13.8657 3.16444 13.3771 4.3443 14.0413 5.00825C14.3434 5.3103 14.8237 5.40572 15.2184 5.24212C16.2726 4.80515 15.962 3.16444 14.8048 3.16444ZM10.0006 4.42631C7.44816 4.42631 5.3787 6.49575 5.3787 9.04819C5.3787 11.6006 7.44816 13.6691 10.0006 13.6691C12.5531 13.6691 14.622 11.6006 14.622 9.04819C14.622 6.49575 12.5531 4.42631 10.0006 4.42631ZM10.0006 6.04819C11.6574 6.04819 13.0007 7.39125 13.0007 9.04819C13.0007 10.7049 11.6574 12.0482 10.0006 12.0482C8.34367 12.0482 7.00059 10.7049 7.00059 9.04819C7.00059 7.39125 8.34367 6.04819 10.0006 6.04819Z" fill="#139CD7"/>
</svg>
