<svg width="17" height="15" viewBox="0 0 17 15" fill="none" xmlns="http://www.w3.org/2000/svg">
<path fill-rule="evenodd" clip-rule="evenodd" d="M6.63498 1.05864C6.25209 0.36945 5.25779 0.36945 4.87491 1.05864L4.87447 1.05944L0.103 9.71465L0.100452 9.71976C-0.220506 10.3633 0.271172 11.0634 0.959062 11.0634H3.89792V14.0577C3.89792 14.5435 4.2993 14.9449 4.78512 14.9449H6.67042C7.15625 14.9449 7.55763 14.5435 7.55763 14.0577V10.5089H6.39317C6.15976 10.5089 5.99207 10.3519 5.94964 10.151C5.95025 10.0549 5.9549 10.0112 5.97396 9.97067L8.47201 5.44294L10.9706 9.97068C10.9897 10.0112 10.9943 10.0549 10.9949 10.151C10.9525 10.3519 10.7848 10.5089 10.5514 10.5089H9.38582V14.0577C9.38582 14.5437 9.78736 14.9449 10.2736 14.9449H12.2698C12.756 14.9449 13.1575 14.5437 13.1575 14.0577V11.0634H16.0409C16.7288 11.0634 17.2205 10.3633 16.8995 9.71976L16.897 9.71465L12.125 1.05942L12.1245 1.05864C11.7417 0.36945 10.7474 0.36945 10.3645 1.05864L10.6068 1.19329L10.3625 1.06222L8.47422 4.58217L6.66987 1.12528V1.12144L6.63498 1.05864Z" fill="#C6ECFD"/>
</svg>
