<svg width="43" height="366" viewBox="0 0 43 366" fill="none" xmlns="http://www.w3.org/2000/svg">
<path d="M21.0541 320.861L20.8582 322.348C21.2865 322.405 21.7183 322.274 22.0431 321.989C22.3679 321.704 22.5541 321.293 22.5541 320.861L21.0541 320.861ZM20.7405 347.602L20.689 346.103C19.8811 346.131 19.2405 346.794 19.2405 347.602L20.7405 347.602ZM7.5943 343.164L9.0812 343.362C9.13064 342.99 9.03912 342.614 8.82467 342.306L7.5943 343.164ZM3.39105 331.61L1.91273 331.356C1.91002 331.372 1.90756 331.388 1.90535 331.403L3.39105 331.61ZM41 345.668L42.1564 346.624L42.8344 345.803L42.2835 344.892L41 345.668ZM33.7053 345.668L32.4258 346.451L32.4478 346.487L32.4719 346.522L33.7053 345.668ZM32.1759 343.128L33.5237 342.469L33.3994 342.215L33.1911 342.024L32.1759 343.128ZM23.6734 363.917L23.3322 362.456L23.3322 362.456L23.6734 363.917ZM19.8874 361.567L18.4268 361.908L18.4268 361.908L19.8874 361.567ZM26.0873 361.214L27.5773 361.388L27.5773 361.387L26.0873 361.214ZM19.8355 360.404L21.3203 360.617C21.3228 360.6 21.3249 360.583 21.3267 360.566L19.8355 360.404ZM27.8538 346.007L26.3713 345.779L26.3671 345.806L26.3638 345.834L27.8538 346.007ZM21.224 347.627L20.2205 346.512L19.7947 346.895L19.7328 347.465L21.224 347.627ZM17.0487 349.426L17.2767 347.944L17.0487 349.426ZM20.7405 347.987L22.2304 348.16C22.2371 348.103 22.2405 348.045 22.2405 347.987L20.7405 347.987ZM14.4887 347.177L15.9887 347.177C15.9887 346.906 15.9152 346.64 15.7761 346.407L14.4887 347.177ZM14.2197 346.727L13.8884 345.264L11.8707 345.721L12.9322 347.497L14.2197 346.727ZM13.2941 346.812L12.0563 345.965C11.9183 346.166 11.8317 346.399 11.8039 346.641L13.2941 346.812ZM6.99457 343.164L5.50438 342.993L6.99457 343.164ZM2.10172 340.878L3.58698 341.088L3.58741 341.085L2.10172 340.878ZM4.86937 331.864C5.91445 325.784 12.7607 321.282 20.8582 322.348L21.25 319.374C12.0543 318.163 3.3086 323.235 1.91273 331.356L4.86937 331.864ZM41 345.668C39.8436 344.713 39.844 344.713 39.8444 344.712C39.8445 344.712 39.8449 344.711 39.8451 344.711C39.8456 344.711 39.8459 344.71 39.8463 344.71C39.8469 344.709 39.8474 344.708 39.8476 344.708C39.848 344.708 39.8475 344.708 39.8462 344.71C39.8435 344.713 39.8373 344.72 39.8277 344.731C39.8085 344.753 39.7761 344.789 39.7316 344.836C39.6421 344.931 39.5064 345.068 39.3336 345.221C38.978 345.536 38.5142 345.876 38.0111 346.09C37.5167 346.301 37.0613 346.36 36.6365 346.247C36.2218 346.135 35.6219 345.802 34.9387 344.815L32.4719 346.522C33.4513 347.937 34.5946 348.805 35.8594 349.144C37.114 349.481 38.2745 349.24 39.1881 348.85C40.093 348.464 40.8295 347.903 41.322 347.467C41.5733 347.245 41.7737 347.044 41.9143 346.895C41.9848 346.82 42.0409 346.757 42.0815 346.711C42.1018 346.688 42.1183 346.669 42.1308 346.654C42.1371 346.647 42.1424 346.641 42.1466 346.635C42.1488 346.633 42.1506 346.631 42.1523 346.629C42.1531 346.628 42.1538 346.627 42.1545 346.626C42.1549 346.626 42.1553 346.625 42.1555 346.625C42.156 346.624 42.1564 346.624 41 345.668ZM33.7053 345.668C34.9848 344.886 34.9848 344.886 34.9848 344.886C34.9848 344.886 34.9848 344.886 34.9848 344.885C34.9847 344.885 34.9847 344.885 34.9846 344.885C34.9844 344.885 34.9842 344.885 34.9839 344.884C34.9832 344.883 34.9822 344.881 34.9808 344.879C34.9782 344.875 34.9742 344.868 34.9689 344.86C34.9585 344.843 34.9432 344.817 34.9236 344.785C34.8844 344.721 34.8283 344.629 34.7607 344.519C34.6254 344.297 34.4441 343.999 34.2599 343.696C34.0755 343.392 33.8894 343.084 33.7439 342.84C33.5733 342.555 33.5124 342.446 33.5237 342.469L30.828 343.786C30.8885 343.91 31.0435 344.17 31.1688 344.379C31.3194 344.631 31.5095 344.946 31.6951 345.252C31.8809 345.558 32.0636 345.858 32.1996 346.081C32.2677 346.192 32.3242 346.285 32.3637 346.35C32.3834 346.382 32.3989 346.407 32.4095 346.425C32.4148 346.433 32.4188 346.44 32.4216 346.444C32.4229 346.447 32.424 346.448 32.4247 346.449C32.425 346.45 32.4253 346.45 32.4255 346.451C32.4256 346.451 32.4256 346.451 32.4257 346.451C32.4257 346.451 32.4257 346.451 32.4257 346.451C32.4258 346.451 32.4258 346.451 33.7053 345.668ZM23.3322 362.456C22.4431 362.664 21.5552 362.111 21.3479 361.225L18.4268 361.908C19.0117 364.409 21.514 365.961 24.0145 365.377L23.3322 362.456ZM24.5974 361.041C24.519 361.714 24.0273 362.294 23.3322 362.456L24.0145 365.377C25.9794 364.918 27.3569 363.279 27.5773 361.388L24.5974 361.041ZM21.3479 361.225C21.2992 361.017 21.2924 360.812 21.3203 360.617L18.3507 360.192C18.2707 360.75 18.2917 361.331 18.4268 361.908L21.3479 361.225ZM26.3638 345.834L24.5973 361.041L27.5773 361.387L29.3438 346.18L26.3638 345.834ZM21.3267 360.566L22.7152 347.789L19.7328 347.465L18.3443 360.242L21.3267 360.566ZM19.2506 347.813C19.2383 347.918 19.2162 347.928 19.2343 347.904C19.2539 347.878 19.2557 347.898 19.1674 347.933C18.9359 348.027 18.3744 348.113 17.2767 347.944L16.8208 350.909C18.0978 351.105 19.3075 351.112 20.2908 350.715C20.8099 350.505 21.2801 350.177 21.6349 349.703C21.9881 349.232 22.168 348.696 22.2304 348.16L19.2506 347.813ZM15.7761 346.407L15.5072 345.957L12.9322 347.497L13.2012 347.947L15.7761 346.407ZM11.8039 346.641C11.8166 346.53 11.869 346.368 11.9974 346.219C12.1174 346.081 12.2408 346.026 12.2869 346.01C12.3391 345.991 12.2473 346.03 11.9361 345.987C11.3428 345.904 10.6002 345.617 10.1809 345.359L8.60938 347.915C9.36069 348.377 10.4945 348.815 11.5215 348.958C12.0205 349.028 12.6749 349.055 13.2889 348.837C13.6159 348.721 13.9742 348.52 14.2679 348.18C14.5701 347.83 14.7351 347.412 14.7844 346.983L11.8039 346.641ZM13.6167 344.957C13.1293 344.957 12.796 345.191 12.736 345.232C12.6179 345.313 12.5302 345.395 12.483 345.441C12.3837 345.538 12.3011 345.639 12.2523 345.7C12.1972 345.769 12.1494 345.834 12.1171 345.879C12.1003 345.902 12.0864 345.922 12.0761 345.936C12.071 345.944 12.0667 345.95 12.0633 345.955C12.0617 345.957 12.0602 345.959 12.0591 345.961C12.0585 345.962 12.0579 345.962 12.0575 345.963C12.0572 345.963 12.057 345.964 12.0568 345.964C12.0567 345.964 12.0566 345.964 12.0565 345.964C12.0565 345.965 12.0564 345.965 12.0564 345.965C12.0563 345.965 12.0563 345.965 13.2941 346.812C14.532 347.659 14.5319 347.659 14.5318 347.659C14.5318 347.66 14.5317 347.66 14.5317 347.66C14.5316 347.66 14.5316 347.66 14.5315 347.66C14.5313 347.66 14.5312 347.66 14.5311 347.661C14.5309 347.661 14.5307 347.661 14.5306 347.661C14.5303 347.662 14.5303 347.662 14.5304 347.662C14.5307 347.661 14.5317 347.66 14.5333 347.657C14.5366 347.653 14.5423 347.645 14.5496 347.635C14.5653 347.613 14.5832 347.589 14.5988 347.569C14.6207 347.542 14.6138 347.553 14.5824 347.584C14.5692 347.597 14.5135 347.651 14.424 347.712C14.378 347.744 14.296 347.795 14.1839 347.843C14.0789 347.887 13.8792 347.957 13.6167 347.957L13.6167 344.957ZM5.50438 342.993C5.4997 343.034 5.47131 343.096 5.3901 343.137C5.32959 343.167 5.0407 343.282 4.40307 343.009L3.22198 345.766C4.47524 346.303 5.71677 346.333 6.74427 345.814C7.75106 345.304 8.36826 344.35 8.48477 343.335L5.50438 342.993ZM22.2275 348.742C22.297 348.679 22.4333 348.547 22.5482 348.342C22.6674 348.13 22.8225 347.726 22.6981 347.229C22.5739 346.733 22.247 346.45 22.0435 346.32C21.8472 346.194 21.6665 346.142 21.5785 346.12C21.2908 346.048 21.0113 346.072 20.9789 346.074C20.8752 346.08 20.772 346.091 20.7138 346.098C20.6069 346.109 20.6415 346.105 20.689 346.103L20.792 349.101C20.8914 349.098 21.0279 349.081 21.0408 349.08C21.1024 349.073 21.1369 349.07 21.1565 349.069C21.2475 349.063 21.0771 349.087 20.8523 349.031C20.7799 349.013 20.6121 348.966 20.4252 348.846C20.231 348.721 19.9102 348.446 19.788 347.958C19.6658 347.47 19.8191 347.075 19.9321 346.874C20.0408 346.68 20.1665 346.561 20.2205 346.512L22.2275 348.742ZM19.2405 347.602L19.2405 347.987L22.2405 347.987L22.2405 347.602L19.2405 347.602ZM14.551 348.19C14.742 348.147 15.4307 347.936 15.6606 347.145C15.8525 346.486 15.5316 345.992 15.4821 345.915C15.3868 345.767 15.287 345.67 15.2503 345.635C15.2023 345.59 15.1607 345.557 15.136 345.537C15.0537 345.474 14.9794 345.43 14.9673 345.423C14.9167 345.393 14.8665 345.367 14.8352 345.351C14.7634 345.314 14.6756 345.271 14.5899 345.231C14.5055 345.191 14.4041 345.146 14.3078 345.107C14.2615 345.089 14.1974 345.064 14.1275 345.041C14.127 345.041 13.8958 344.957 13.6167 344.957L13.6167 347.957C13.4493 347.957 13.324 347.927 13.2971 347.921C13.2504 347.91 13.2172 347.9 13.2051 347.896C13.1802 347.888 13.1716 347.884 13.1872 347.89C13.2147 347.901 13.263 347.922 13.3221 347.95C13.3798 347.977 13.4292 348.001 13.456 348.015C13.4741 348.024 13.4635 348.019 13.439 348.005C13.4312 348 13.4165 347.991 13.3978 347.979C13.383 347.97 13.3451 347.945 13.2986 347.909C13.2753 347.891 13.2349 347.859 13.1878 347.814C13.152 347.78 13.0529 347.684 12.9581 347.537C12.9089 347.46 12.5882 346.967 12.7799 346.308C13.0097 345.518 13.6981 345.307 13.8884 345.264L14.551 348.19ZM3.58741 341.085L4.87674 331.817L1.90535 331.403L0.616027 340.672L3.58741 341.085ZM29.3364 346.235C29.3499 346.147 29.4351 345.843 29.6362 345.431C29.8291 345.037 30.0751 344.654 30.335 344.376C30.6091 344.082 30.7815 344.026 30.8192 344.02C30.8244 344.019 30.8316 344.017 30.8613 344.027C30.8986 344.04 31.0007 344.085 31.1606 344.232L33.1911 342.024C32.3614 341.261 31.3737 340.889 30.3332 341.06C29.3776 341.217 28.644 341.791 28.1415 342.329C27.6247 342.883 27.2236 343.536 26.9409 344.114C26.6665 344.675 26.4478 345.282 26.3713 345.779L29.3364 346.235ZM17.2767 347.944C16.295 347.793 16.0639 347.535 16.0423 347.509C16.032 347.497 15.9887 347.458 15.9887 347.177L12.9887 347.177C12.9887 347.706 13.0548 348.612 13.7392 349.432C14.4124 350.238 15.4614 350.7 16.8208 350.909L17.2767 347.944ZM10.1809 345.359C9.78964 345.119 9.63657 345.044 9.40797 344.891C9.23229 344.773 9.17066 344.706 9.14238 344.668C9.12884 344.649 8.93978 344.425 9.0812 343.362L6.1074 342.966C5.92103 344.368 6.04712 345.52 6.72331 346.442C7.0399 346.874 7.41678 347.168 7.73972 347.384C8.00973 347.565 8.41538 347.795 8.60938 347.915L10.1809 345.359ZM4.40307 343.009C3.63602 342.68 3.56405 342.458 3.55092 342.425C3.49336 342.28 3.4608 341.981 3.58697 341.088L0.616467 340.668C0.498323 341.505 0.375717 342.556 0.761919 343.53C1.19254 344.617 2.09814 345.285 3.22198 345.766L4.40307 343.009ZM8.82467 342.306C8.5958 341.978 8.29432 341.806 8.15944 341.736C7.98052 341.643 7.76141 341.561 7.51818 341.521C7.30364 341.486 6.8843 341.451 6.44034 341.665C5.88498 341.932 5.56666 342.451 5.50438 342.993L8.48477 343.335C8.46616 343.497 8.40826 343.707 8.26607 343.916C8.12124 344.128 7.9312 344.277 7.74061 344.369C7.39833 344.533 7.10983 344.494 7.02957 344.481C6.92061 344.463 6.83921 344.431 6.77568 344.398C6.75619 344.387 6.54778 344.286 6.36393 344.022L8.82467 342.306ZM31.9893 330.568C33.3762 332.938 34.5308 335.595 35.7399 338.355C36.9337 341.08 38.18 343.904 39.7165 346.445L42.2835 344.892C40.8653 342.547 39.6934 339.903 38.4878 337.151C37.2974 334.434 36.0714 331.604 34.5787 329.053L31.9893 330.568ZM22.5541 320.861L22.5541 1.21332e-05L19.5541 1.21379e-05L19.5541 320.861L22.5541 320.861Z" fill="#C6ECFD"/>
</svg>
