<svg width="18" height="15" viewBox="0 0 18 15" fill="none" xmlns="http://www.w3.org/2000/svg">
<path d="M0 13.3065C1.65066 14.3952 3.57642 15 5.65939 15C12.4978 15 16.3493 9.07258 16.1528 3.75C16.8603 3.22581 17.4891 2.54032 18 1.77419C17.3319 2.05645 16.6245 2.29839 15.8777 2.37903C16.6245 1.89516 17.214 1.16935 17.4891 0.282258C16.7817 0.725807 15.9956 1.04839 15.131 1.20968C14.4629 0.483871 13.5197 0 12.4585 0C10.0611 0 8.33188 2.25806 8.8821 4.6371C5.77729 4.51613 3.0655 3.02419 1.25764 0.725807C0.275109 2.41935 0.746725 4.6371 2.39738 5.76613C1.80786 5.76613 1.21834 5.56452 0.746725 5.28226C0.707424 7.01613 1.92576 8.66936 3.69432 9.03226C3.18341 9.19355 2.59389 9.19355 2.04367 9.1129C2.51528 10.6048 3.89083 11.6935 5.50218 11.7339C3.89083 12.9839 1.96507 13.5484 0 13.3065Z" fill="#C6ECFD"/>
</svg>
